<?xml version="1.0" encoding="utf-8"?>
<!-- Generator: Adobe Illustrator 16.0.0, SVG Export Plug-In . SVG Version: 6.00 Build 0)  -->
<!DOCTYPE svg PUBLIC "-//W3C//DTD SVG 1.1//EN" "http://www.w3.org/Graphics/SVG/1.1/DTD/svg11.dtd">
<svg version="1.1" id="Layer_1" xmlns="http://www.w3.org/2000/svg" xmlns:xlink="http://www.w3.org/1999/xlink" x="0px" y="0px"
	 width="850.39px" height="850.39px" viewBox="0 0 850.39 850.39" enable-background="new 0 0 850.39 850.39" xml:space="preserve">
<g transform="translate(136.9134984, 22.5000185) ">
	<polygon fill="none" stroke="#ED2224" stroke-width="0.25" points="15.407,-13.195 15.282,-3.059 34.831,-3.059 34.742,-12.055 
		48.597,-12.055 48.686,-3.059 68.221,-3.059 68.221,-12.254 87.614,-12.254 87.614,3.624 78.642,3.624 78.642,18.637 
		87.614,18.637 87.614,34.272 78.642,34.272 78.642,49.227 87.614,49.227 87.614,64.5 68.221,64.5 68.221,55.604 48.686,55.604 
		48.686,64.5 34.831,64.5 34.831,55.604 15.335,55.606 15.407,64.725 11.353,64.725 11.353,-13.195 	"/>
</g>
<g transform="translate(136.9134984, 22.5000185) ">
	<polygon fill="none" stroke="#ED2224" stroke-width="0.25" points="177.51,-13.195 177.635,-3.059 158.087,-3.059 158.174,-12.055 
		144.319,-12.055 144.231,-3.059 124.696,-3.059 124.696,-12.254 105.303,-12.254 105.303,3.624 114.274,3.624 114.274,18.637 
		105.303,18.637 105.303,34.272 114.274,34.272 114.274,49.227 105.303,49.227 105.303,64.5 124.696,64.5 124.696,55.604 
		144.231,55.604 144.231,64.5 158.087,64.5 158.087,55.604 177.583,55.606 177.51,64.725 181.564,64.725 181.564,-13.195 	"/>
</g>
<g transform="translate(251.3269783, 118.4528533) ">
	<polygon fill="none" stroke="#ED2224" stroke-width="0.25" points="-113.175,-43.956 -121.305,-35.93 -127.558,-42.264 
		-141.616,-28.384 -135.363,-22.05 -145.652,-11.893 -151.905,-18.227 -161.79,-8.467 -155.536,-2.134 -165.823,8.024 
		-172.077,1.69 -186.136,15.57 -179.883,21.904 -188.012,29.93 -198.758,19.046 -205.091,25.299 -216.037,14.212 -209.704,7.958 
		-220.251,-2.723 -226.583,3.529 -237.53,-7.556 -231.196,-13.81 -241.943,-24.694 -233.813,-32.72 -227.559,-26.387 
		-213.501,-40.267 -219.755,-46.601 -209.467,-56.758 -203.214,-50.425 -193.329,-60.183 -199.583,-66.517 -189.295,-76.675 
		-183.041,-70.341 -168.982,-84.221 -175.236,-90.555 -167.106,-98.581 -156.359,-87.696 -150.026,-93.95 -139.081,-82.863 
		-145.414,-76.61 -134.867,-65.927 -128.534,-72.181 -117.588,-61.094 -123.921,-54.841 	"/>
</g>
<g transform="translate(251.3269783, 118.4528533) ">
	<polygon fill="none" stroke="#ED2224" stroke-width="0.25" points="129.92,-84.348 137.945,-76.217 131.611,-69.964 
		145.492,-55.907 151.826,-62.16 161.983,-51.871 155.649,-45.618 165.409,-35.733 171.742,-41.987 181.9,-31.7 175.566,-25.446 
		189.445,-11.387 195.779,-17.64 203.806,-9.511 192.922,1.235 199.175,7.568 188.088,18.514 181.834,12.181 171.153,22.728 
		177.404,29.06 166.32,40.007 160.066,33.673 149.182,44.42 141.155,36.29 147.488,30.036 133.609,15.978 127.275,22.232 
		117.118,11.944 123.451,5.691 113.693,-4.194 107.359,2.06 97.201,-8.228 103.535,-14.482 89.654,-28.54 83.32,-22.287 
		75.295,-30.417 86.18,-41.163 79.926,-47.497 91.013,-58.442 97.266,-52.108 107.948,-62.655 101.695,-68.989 112.781,-79.935 
		119.035,-73.602 	"/>
</g>
<path fill="none" stroke="#010101" stroke-width="0.9" d="M138.152,101.298"/>
<g transform="translate(136.9134984, 22.5000185) ">
	<polygon fill="none" stroke="#ED2224" stroke-width="0.25" points="15.283,188.782 15.158,198.918 34.707,198.918 34.618,189.922 
		48.473,189.922 48.562,198.918 68.097,198.918 68.097,189.723 87.49,189.723 87.49,205.601 78.518,205.601 78.518,220.614 
		87.49,220.614 87.49,236.249 78.518,236.249 78.518,251.204 87.49,251.204 87.49,266.477 68.097,266.477 68.097,257.582 
		48.562,257.582 48.562,266.477 34.707,266.477 34.707,257.582 15.211,257.583 15.283,266.702 11.229,266.702 11.229,188.782 	"/>
</g>
<g transform="translate(136.9134984, 22.5000185) ">
	<polygon fill="none" stroke="#ED2224" stroke-width="0.25" points="177.386,188.782 177.511,198.918 157.962,198.918 
		158.05,189.922 144.195,189.922 144.107,198.918 124.572,198.918 124.572,189.723 105.179,189.723 105.179,205.601 114.15,205.601 
		114.15,220.614 105.179,220.614 105.179,236.249 114.15,236.249 114.15,251.204 105.179,251.204 105.179,266.477 124.572,266.477 
		124.572,257.582 144.107,257.582 144.107,266.477 157.962,266.477 157.962,257.582 177.459,257.583 177.386,266.702 
		181.44,266.702 181.44,188.782 	"/>
</g>
<g transform="translate(251.3269783, 118.4528533) ">
	<polygon fill="none" stroke="#ED2224" stroke-width="0.25" points="-113.299,158.021 -121.43,166.047 -127.682,159.713 
		-141.74,173.594 -135.487,179.928 -145.776,190.084 -152.029,183.75 -161.914,193.511 -155.66,199.844 -165.947,210.001 
		-172.201,203.667 -186.26,217.547 -180.007,223.881 -188.136,231.907 -198.882,221.023 -205.215,227.276 -216.161,216.189 
		-209.828,209.935 -220.375,199.254 -226.707,205.506 -237.654,194.421 -231.32,188.167 -242.067,177.283 -233.937,169.257 
		-227.683,175.59 -213.625,161.71 -219.879,155.376 -209.591,145.22 -203.338,151.553 -193.453,141.794 -199.707,135.46 
		-189.419,125.303 -183.165,131.637 -169.106,117.756 -175.36,111.422 -167.23,103.396 -156.483,114.281 -150.15,108.027 
		-139.205,119.114 -145.538,125.367 -134.991,136.05 -128.658,129.796 -117.712,140.883 -124.045,147.137 	"/>
</g>
<g transform="translate(251.3269783, 118.4528533) ">
	<polygon fill="none" stroke="#ED2224" stroke-width="0.25" points="129.796,117.629 137.821,125.76 131.487,132.013 
		145.368,146.07 151.702,139.817 161.859,150.106 155.525,156.359 165.285,166.244 171.618,159.99 181.776,170.277 175.442,176.531 
		189.321,190.59 195.655,184.337 203.682,192.466 192.798,203.212 199.051,209.545 187.964,220.491 181.71,214.158 171.028,224.705 
		177.28,231.037 166.195,241.984 159.942,235.65 149.058,246.397 141.031,238.267 147.364,232.013 133.485,217.955 127.151,224.209 
		116.994,213.921 123.327,207.668 113.569,197.783 107.235,204.037 97.077,193.749 103.411,187.495 89.53,173.437 83.196,179.69 
		75.171,171.56 86.056,160.814 79.802,154.48 90.889,143.535 97.142,149.869 107.824,139.322 101.57,132.988 112.657,122.042 
		118.911,128.375 	"/>
</g>
<path fill="none" stroke="#010101" stroke-width="0.9" d="M138.028,303.275"/>
<g transform="translate(136.9134984, 22.5000185) ">
	<polygon fill="none" stroke="#ED2224" stroke-width="0.25" points="15.407,392.805 15.282,402.941 34.831,402.941 34.742,393.945 
		48.597,393.945 48.686,402.941 68.221,402.941 68.221,393.746 87.614,393.746 87.614,409.624 78.642,409.624 78.642,424.637 
		87.614,424.637 87.614,440.272 78.642,440.272 78.642,455.227 87.614,455.227 87.614,470.5 68.221,470.5 68.221,461.604 
		48.686,461.604 48.686,470.5 34.831,470.5 34.831,461.604 15.335,461.606 15.407,470.725 11.353,470.725 11.353,392.805 	"/>
</g>
<g transform="translate(136.9134984, 22.5000185) ">
	<polygon fill="none" stroke="#ED2224" stroke-width="0.25" points="177.51,392.805 177.635,402.941 158.087,402.941 
		158.174,393.945 144.319,393.945 144.231,402.941 124.696,402.941 124.696,393.746 105.303,393.746 105.303,409.624 
		114.274,409.624 114.274,424.637 105.303,424.637 105.303,440.272 114.274,440.272 114.274,455.227 105.303,455.227 105.303,470.5 
		124.696,470.5 124.696,461.604 144.231,461.604 144.231,470.5 158.087,470.5 158.087,461.604 177.583,461.606 177.51,470.725 
		181.564,470.725 181.564,392.805 	"/>
</g>
<g transform="translate(251.3269783, 118.4528533) ">
	<polygon fill="none" stroke="#ED2224" stroke-width="0.25" points="-113.175,362.044 -121.305,370.07 -127.558,363.736 
		-141.616,377.616 -135.363,383.95 -145.652,394.107 -151.905,387.773 -161.79,397.533 -155.536,403.866 -165.823,414.024 
		-172.077,407.69 -186.136,421.57 -179.883,427.904 -188.012,435.93 -198.758,425.046 -205.091,431.299 -216.037,420.212 
		-209.704,413.958 -220.251,403.277 -226.583,409.529 -237.53,398.444 -231.196,392.19 -241.943,381.306 -233.813,373.28 
		-227.559,379.613 -213.501,365.733 -219.755,359.399 -209.467,349.242 -203.214,355.575 -193.329,345.817 -199.583,339.483 
		-189.295,329.325 -183.041,335.659 -168.982,321.779 -175.236,315.445 -167.106,307.419 -156.359,318.304 -150.026,312.05 
		-139.081,323.137 -145.414,329.39 -134.867,340.073 -128.534,333.819 -117.588,344.906 -123.921,351.159 	"/>
</g>
<g transform="translate(251.3269783, 118.4528533) ">
	<polygon fill="none" stroke="#ED2224" stroke-width="0.25" points="129.92,321.652 137.945,329.783 131.611,336.036 
		145.492,350.093 151.826,343.84 161.983,354.129 155.649,360.382 165.409,370.267 171.742,364.013 181.9,374.3 175.566,380.554 
		189.445,394.613 195.779,388.36 203.806,396.489 192.922,407.235 199.175,413.568 188.088,424.514 181.834,418.181 
		171.153,428.728 177.404,435.06 166.32,446.007 160.066,439.673 149.182,450.42 141.155,442.29 147.488,436.036 133.609,421.978 
		127.275,428.232 117.118,417.944 123.451,411.691 113.693,401.806 107.359,408.06 97.201,397.772 103.535,391.518 89.654,377.46 
		83.32,383.713 75.295,375.583 86.18,364.837 79.926,358.503 91.013,347.558 97.266,353.892 107.948,343.345 101.695,337.011 
		112.781,326.065 119.035,332.398 	"/>
</g>
<path fill="none" stroke="#010101" stroke-width="0.9" d="M138.152,507.298"/>
<g transform="translate(136.9134984, 22.5000185) ">
	<polygon fill="none" stroke="#ED2224" stroke-width="0.25" points="15.407,596.805 15.282,606.941 34.831,606.941 34.742,597.945 
		48.597,597.945 48.686,606.941 68.221,606.941 68.221,597.746 87.614,597.746 87.614,613.624 78.642,613.624 78.642,628.637 
		87.614,628.637 87.614,644.272 78.642,644.272 78.642,659.227 87.614,659.227 87.614,674.5 68.221,674.5 68.221,665.604 
		48.686,665.604 48.686,674.5 34.831,674.5 34.831,665.604 15.335,665.606 15.407,674.725 11.353,674.725 11.353,596.805 	"/>
</g>
<g transform="translate(136.9134984, 22.5000185) ">
	<polygon fill="none" stroke="#ED2224" stroke-width="0.25" points="177.51,596.805 177.635,606.941 158.087,606.941 
		158.174,597.945 144.319,597.945 144.231,606.941 124.696,606.941 124.696,597.746 105.303,597.746 105.303,613.624 
		114.274,613.624 114.274,628.637 105.303,628.637 105.303,644.272 114.274,644.272 114.274,659.227 105.303,659.227 105.303,674.5 
		124.696,674.5 124.696,665.604 144.231,665.604 144.231,674.5 158.087,674.5 158.087,665.604 177.583,665.606 177.51,674.725 
		181.564,674.725 181.564,596.805 	"/>
</g>
<g transform="translate(251.3269783, 118.4528533) ">
	<polygon fill="none" stroke="#ED2224" stroke-width="0.25" points="-113.175,566.044 -121.305,574.07 -127.558,567.736 
		-141.616,581.616 -135.363,587.95 -145.652,598.107 -151.905,591.773 -161.79,601.533 -155.536,607.866 -165.823,618.024 
		-172.077,611.69 -186.136,625.57 -179.883,631.904 -188.012,639.93 -198.758,629.046 -205.091,635.299 -216.037,624.212 
		-209.704,617.958 -220.251,607.277 -226.583,613.529 -237.53,602.444 -231.196,596.19 -241.943,585.306 -233.813,577.28 
		-227.559,583.613 -213.501,569.733 -219.755,563.399 -209.467,553.242 -203.214,559.575 -193.329,549.817 -199.583,543.483 
		-189.295,533.325 -183.041,539.659 -168.982,525.779 -175.236,519.445 -167.106,511.419 -156.359,522.304 -150.026,516.05 
		-139.081,527.137 -145.414,533.39 -134.867,544.073 -128.534,537.819 -117.588,548.906 -123.921,555.159 	"/>
</g>
<g transform="translate(251.3269783, 118.4528533) ">
	<polygon fill="none" stroke="#ED2224" stroke-width="0.25" points="129.92,525.652 137.945,533.782 131.611,540.036 
		145.492,554.093 151.826,547.84 161.983,558.129 155.649,564.382 165.409,574.267 171.742,568.013 181.9,578.3 175.566,584.554 
		189.445,598.613 195.779,592.36 203.806,600.489 192.922,611.235 199.175,617.568 188.088,628.514 181.834,622.181 
		171.153,632.728 177.404,639.06 166.32,650.007 160.066,643.673 149.182,654.42 141.155,646.29 147.488,640.036 133.609,625.978 
		127.275,632.232 117.118,621.944 123.451,615.691 113.693,605.806 107.359,612.06 97.201,601.772 103.535,595.518 89.654,581.46 
		83.32,587.713 75.295,579.583 86.18,568.837 79.926,562.503 91.013,551.558 97.266,557.892 107.948,547.345 101.695,541.011 
		112.781,530.065 119.035,536.398 	"/>
</g>
<path fill="none" stroke="#010101" stroke-width="0.9" d="M138.152,711.298"/>
<g>
	
		<path id="path3851_4_" sodipodi:nodetypes="ccccccccccccccccccc" inkscape:connector-curvature="0" fill="none" stroke="#ED2224" stroke-width="0.25" d="
		M165.321,182.622l-54.338-54.337l27.169-26.987l12.293-0.126l0.009-8.91l19.539-0.21v9.075l13.855,0.045v-9.12l19.535-0.141v9.261
		h10.422v10.732h8.971v20.271h-8.971v13.921l8.971-0.032v14.486h-8.971v13.862h8.971v20.324h-8.971v11.724H32.381l46.679-46.251
		l-5.941-6.066l23.778-23.847l50.313,50.312l-46.289-54.337l-2.012-6.037l4.024-4.024l5.893,1.868l-4.024,4.024l6.182,6.183"/>
	
		<path id="path3235_3_" sodipodi:nodetypes="ccccccccccccccccccc" inkscape:connector-curvature="0" fill="none" stroke="#ED2224" stroke-width="0.25" d="
		M60.672,178.598"/>
</g>
<g>
	
		<path id="path3851_2_" sodipodi:nodetypes="ccccccccccccccccccc" inkscape:connector-curvature="0" fill="none" stroke="#ED2224" stroke-width="0.25" d="
		M289.003,182.622l54.338-54.337l-27.168-26.987l-12.294-0.126l-0.009-8.91l-19.539-0.21v9.075l-13.855,0.045v-9.12l-19.535-0.141
		v9.261h-10.422v10.732h-8.971v20.271h8.971v13.921l-8.971-0.032v14.486h8.971v13.862h-8.971v20.324h8.971v11.724h181.426
		l-46.68-46.251l5.941-6.066l-23.779-23.847l-50.312,50.312l46.289-54.337l2.012-6.037l-4.023-4.024l-5.893,1.868l4.023,4.024
		l-6.182,6.183"/>
	
		<path id="path3235_1_" sodipodi:nodetypes="ccccccccccccccccccc" inkscape:connector-curvature="0" fill="none" stroke="#ED2224" stroke-width="0.25" d="
		M393.653,178.598"/>
</g>
<path fill="none" d="M169.993,101.127"/>
<g>
	
		<path id="path3851_3_" sodipodi:nodetypes="ccccccccccccccccccc" inkscape:connector-curvature="0" fill="none" stroke="#ED2224" stroke-width="0.25" d="
		M165.197,384.599l-54.338-54.337l27.169-26.987l12.293-0.126l0.009-8.91l19.539-0.21v9.075l13.855,0.045v-9.12l19.535-0.141v9.261
		h10.422v10.732h8.971v20.271h-8.971v13.921l8.971-0.032v14.486h-8.971v13.862h8.971v20.324h-8.971v11.724H32.257l46.679-46.251
		l-5.941-6.066l23.778-23.847l50.313,50.312l-46.289-54.337l-2.012-6.037l4.024-4.024l5.893,1.868l-4.024,4.024l6.182,6.183"/>
	
		<path id="path3235_4_" sodipodi:nodetypes="ccccccccccccccccccc" inkscape:connector-curvature="0" fill="none" stroke="#ED2224" stroke-width="0.25" d="
		M60.548,380.575"/>
</g>
<g>
	
		<path id="path3851_1_" sodipodi:nodetypes="ccccccccccccccccccc" inkscape:connector-curvature="0" fill="none" stroke="#ED2224" stroke-width="0.25" d="
		M288.879,384.599l54.338-54.337l-27.168-26.987l-12.294-0.126l-0.009-8.91l-19.539-0.21v9.075l-13.855,0.045v-9.12l-19.535-0.141
		v9.261h-10.422v10.732h-8.971v20.271h8.971v13.921l-8.971-0.032v14.486h8.971v13.862h-8.971v20.324h8.971v11.724H421.82
		l-46.68-46.251l5.941-6.066l-23.779-23.847l-50.312,50.312l46.289-54.337l2.012-6.037l-4.023-4.024l-5.893,1.868l4.023,4.024
		l-6.182,6.183"/>
	
		<path id="path3235_2_" sodipodi:nodetypes="ccccccccccccccccccc" inkscape:connector-curvature="0" fill="none" stroke="#ED2224" stroke-width="0.25" d="
		M393.529,380.575"/>
</g>
<path fill="none" d="M169.869,303.104"/>
<g>
	
		<path id="path3851_6_" sodipodi:nodetypes="ccccccccccccccccccc" inkscape:connector-curvature="0" fill="none" stroke="#ED2224" stroke-width="0.25" d="
		M165.321,588.622l-54.338-54.337l27.169-26.987l12.293-0.126l0.009-8.91l19.539-0.21v9.075l13.855,0.045v-9.12l19.535-0.141v9.261
		h10.422v10.732h8.971v20.271h-8.971v13.921l8.971-0.032v14.486h-8.971v13.862h8.971v20.324h-8.971v11.724H32.381l46.679-46.251
		l-5.941-6.066l23.778-23.847l50.313,50.312l-46.289-54.337l-2.012-6.037l4.024-4.024l5.893,1.868l-4.024,4.024l6.182,6.183"/>
	
		<path id="path3235_6_" sodipodi:nodetypes="ccccccccccccccccccc" inkscape:connector-curvature="0" fill="none" stroke="#ED2224" stroke-width="0.25" d="
		M60.672,584.598"/>
</g>
<g>
	
		<path id="path3851_5_" sodipodi:nodetypes="ccccccccccccccccccc" inkscape:connector-curvature="0" fill="none" stroke="#ED2224" stroke-width="0.25" d="
		M289.003,588.622l54.338-54.337l-27.168-26.987l-12.294-0.126l-0.009-8.91l-19.539-0.21v9.075l-13.855,0.045v-9.12l-19.535-0.141
		v9.261h-10.422v10.732h-8.971v20.271h8.971v13.921l-8.971-0.032v14.486h8.971v13.862h-8.971v20.324h8.971v11.724h181.426
		l-46.68-46.251l5.941-6.066l-23.779-23.847l-50.312,50.312l46.289-54.337l2.012-6.037l-4.023-4.024l-5.893,1.868l4.023,4.024
		l-6.182,6.183"/>
	
		<path id="path3235_5_" sodipodi:nodetypes="ccccccccccccccccccc" inkscape:connector-curvature="0" fill="none" stroke="#ED2224" stroke-width="0.25" d="
		M393.653,584.598"/>
</g>
<path fill="none" d="M169.993,507.127"/>
<g>
	
		<path id="path3851_8_" sodipodi:nodetypes="ccccccccccccccccccc" inkscape:connector-curvature="0" fill="none" stroke="#ED2224" stroke-width="0.25" d="
		M165.321,792.622l-54.338-54.337l27.169-26.987l12.293-0.126l0.009-8.91l19.539-0.21v9.075l13.855,0.045v-9.12l19.535-0.141v9.261
		h10.422v10.732h8.971v20.271h-8.971v13.921l8.971-0.032v14.486h-8.971v13.862h8.971v20.324h-8.971v11.724H32.381l46.679-46.251
		l-5.941-6.066l23.778-23.847l50.313,50.312l-46.289-54.337l-2.012-6.037l4.024-4.024l5.893,1.868l-4.024,4.024l6.182,6.183"/>
	
		<path id="path3235_8_" sodipodi:nodetypes="ccccccccccccccccccc" inkscape:connector-curvature="0" fill="none" stroke="#ED2224" stroke-width="0.25" d="
		M60.672,788.598"/>
</g>
<g>
	
		<path id="path3851_7_" sodipodi:nodetypes="ccccccccccccccccccc" inkscape:connector-curvature="0" fill="none" stroke="#ED2224" stroke-width="0.25" d="
		M289.003,792.622l54.338-54.337l-27.168-26.987l-12.294-0.126l-0.009-8.91l-19.539-0.21v9.075l-13.855,0.045v-9.12l-19.535-0.141
		v9.261h-10.422v10.732h-8.971v20.271h8.971v13.921l-8.971-0.032v14.486h8.971v13.862h-8.971v20.324h8.971v11.724h181.426
		l-46.68-46.251l5.941-6.066l-23.779-23.847l-50.312,50.312l46.289-54.337l2.012-6.037l-4.023-4.024l-5.893,1.868l4.023,4.024
		l-6.182,6.183"/>
	
		<path id="path3235_7_" sodipodi:nodetypes="ccccccccccccccccccc" inkscape:connector-curvature="0" fill="none" stroke="#ED2224" stroke-width="0.25" d="
		M393.653,788.598"/>
</g>
<path fill="none" d="M169.993,711.127"/>
<g id="Layer_1_1_">
	
		<line fill="none" stroke="#000000" stroke-width="0.25" stroke-miterlimit="10" x1="474.17" y1="358.982" x2="729.289" y2="358.982"/>
	
		<line fill="none" stroke="#000000" stroke-width="0.25" stroke-miterlimit="10" x1="729.289" y1="415.901" x2="474.17" y2="415.901"/>
	<path fill="none" stroke="#000000" stroke-width="0.25" stroke-miterlimit="10" d="M536.002,308.937
		c-14.105,0-25.58-11.566-25.58-25.783c0-11.289,7.234-20.906,17.277-24.39c-10.043-3.483-17.277-13.103-17.277-24.392
		c0-14.217,11.475-25.781,25.58-25.781h136.891c14.104,0,25.581,11.564,25.581,25.781c0,11.289-7.235,20.907-17.279,24.392
		c10.044,3.481,17.279,13.101,17.279,24.39c0,14.217-11.477,25.783-25.582,25.783H536.002z"/>
	<g>
		
			<rect x="503.77" y="476.297" fill="none" stroke="#000000" stroke-width="0.25" stroke-miterlimit="10" width="56.947" height="73.814"/>
		
			<rect x="504.053" y="476.58" fill="none" stroke="#000000" stroke-width="0.25" stroke-miterlimit="10" width="56.381" height="73.246"/>
		
			<rect x="575.974" y="476.297" fill="none" stroke="#000000" stroke-width="0.25" stroke-miterlimit="10" width="56.948" height="73.812"/>
		
			<rect x="576.257" y="476.58" fill="none" stroke="#000000" stroke-width="0.25" stroke-miterlimit="10" width="56.381" height="73.246"/>
		
			<rect x="648.179" y="476.297" fill="none" stroke="#000000" stroke-width="0.25" stroke-miterlimit="10" width="56.948" height="73.812"/>
		
			<rect x="648.461" y="476.578" fill="none" stroke="#000000" stroke-width="0.25" stroke-miterlimit="10" width="56.382" height="73.248"/>
	</g>
	<path fill="none" stroke="#000000" stroke-width="0.25" stroke-miterlimit="10" d="M481.256,724.924
		c-3.914,0-7.087-3.234-7.087-7.227l0.001-684.513c0-3.99,3.172-7.226,7.086-7.226h240.947c3.914,0,7.086,3.235,7.086,7.226v684.513
		c0,3.99-3.174,7.227-7.086,7.227H481.256z"/>
</g>
<g id="Layer_2">
	<circle fill="none" stroke="#3B54A4" stroke-width="0.25" stroke-miterlimit="10" cx="930.562" cy="261.14" r="9"/>
	
		<line fill="none" stroke="#3B54A4" stroke-width="0.25" stroke-miterlimit="10" x1="925.021" y1="254.053" x2="936.102" y2="268.224"/>
	<polyline fill="none" stroke="#3B54A4" stroke-width="0.25" stroke-miterlimit="10" points="935.892,253.899 930.562,261.14 
		925.021,268.224 	"/>
</g>
</svg>
