  0
SECTION
  2
HEADER
  9
$ACADVER
  1
AC1014
  9
$ACADMAINTVER
 70
     9
  9
$DWGCODEPAGE
  3
ANSI_932
  9
$INSBASE
 10
0.0
 20
0.0
 30
0.0
  9
$EXTMIN
 10
1.000000000000000E+20
 20
1.000000000000000E+20
 30
1.000000000000000E+20
  9
$EXTMAX
 10
-1.000000000000000E+20
 20
-1.000000000000000E+20
 30
-1.000000000000000E+20
  9
$LIMMIN
 10
0.0
 20
0.0
  9
$LIMMAX
 10
12.0
 20
9.0
  9
$ORTHOMODE
 70
     0
  9
$REGENMODE
 70
     1
  9
$FILLMODE
 70
     1
  9
$QTEXTMODE
 70
     0
  9
$MIRRTEXT
 70
     1
  9
$DRAGMODE
 70
     2
  9
$LTSCALE
 40
1.0
  9
$OSMODE
 70
    37
  9
$ATTMODE
 70
     1
  9
$TEXTSIZE
 40
0.2
  9
$TRACEWID
 40
0.05
  9
$TEXTSTYLE
  7
STANDARD
  9
$CLAYER
  8
0
  9
$CELTYPE
  6
BYLAYER
  9
$CECOLOR
 62
   256
  9
$CELTSCALE
 40
1.0
  9
$DELOBJ
 70
     1
  9
$DISPSILH
 70
     0
  9
$DIMSCALE
 40
1.0
  9
$DIMASZ
 40
0.18
  9
$DIMEXO
 40
0.0625
  9
$DIMDLI
 40
0.38
  9
$DIMRND
 40
0.0
  9
$DIMDLE
 40
0.0
  9
$DIMEXE
 40
0.18
  9
$DIMTP
 40
0.0
  9
$DIMTM
 40
0.0
  9
$DIMTXT
 40
0.18
  9
$DIMCEN
 40
0.09
  9
$DIMTSZ
 40
0.0
  9
$DIMTOL
 70
     0
  9
$DIMLIM
 70
     0
  9
$DIMTIH
 70
     1
  9
$DIMTOH
 70
     1
  9
$DIMSE1
 70
     0
  9
$DIMSE2
 70
     0
  9
$DIMTAD
 70
     0
  9
$DIMZIN
 70
     0
  9
$DIMBLK
  1

  9
$DIMASO
 70
     1
  9
$DIMSHO
 70
     1
  9
$DIMPOST
  1

  9
$DIMAPOST
  1

  9
$DIMALT
 70
     0
  9
$DIMALTD
 70
     2
  9
$DIMALTF
 40
25.4
  9
$DIMLFAC
 40
1.0
  9
$DIMTOFL
 70
     0
  9
$DIMTVP
 40
0.0
  9
$DIMTIX
 70
     0
  9
$DIMSOXD
 70
     0
  9
$DIMSAH
 70
     0
  9
$DIMBLK1
  1

  9
$DIMBLK2
  1

  9
$DIMSTYLE
  2
STANDARD
  9
$DIMCLRD
 70
     0
  9
$DIMCLRE
 70
     0
  9
$DIMCLRT
 70
     0
  9
$DIMTFAC
 40
1.0
  9
$DIMGAP
 40
0.09
  9
$DIMJUST
 70
     0
  9
$DIMSD1
 70
     0
  9
$DIMSD2
 70
     0
  9
$DIMTOLJ
 70
     1
  9
$DIMTZIN
 70
     0
  9
$DIMALTZ
 70
     0
  9
$DIMALTTZ
 70
     0
  9
$DIMFIT
 70
     3
  9
$DIMUPT
 70
     0
  9
$DIMUNIT
 70
     2
  9
$DIMDEC
 70
     4
  9
$DIMTDEC
 70
     4
  9
$DIMALTU
 70
     2
  9
$DIMALTTD
 70
     2
  9
$DIMTXSTY
  7
STANDARD
  9
$DIMAUNIT
 70
     0
  9
$LUNITS
 70
     2
  9
$LUPREC
 70
     4
  9
$SKETCHINC
 40
0.1
  9
$FILLETRAD
 40
0.5
  9
$AUNITS
 70
     0
  9
$AUPREC
 70
     0
  9
$MENU
  1
.
  9
$ELEVATION
 40
0.0
  9
$PELEVATION
 40
0.0
  9
$THICKNESS
 40
0.0
  9
$LIMCHECK
 70
     0
  9
$CHAMFERA
 40
0.5
  9
$CHAMFERB
 40
0.5
  9
$CHAMFERC
 40
1.0
  9
$CHAMFERD
 40
0.0
  9
$SKPOLY
 70
     0
  9
$TDCREATE
 40
2457530.673946759
  9
$TDUPDATE
 40
2457530.673946771
  9
$TDINDWG
 40
0.0000000116
  9
$TDUSRTIMER
 40
0.0000000116
  9
$USRTIMER
 70
     1
  9
$ANGBASE
 50
0.0
  9
$ANGDIR
 70
     0
  9
$PDMODE
 70
     0
  9
$PDSIZE
 40
0.0
  9
$PLINEWID
 40
0.0
  9
$COORDS
 70
     1
  9
$SPLFRAME
 70
     0
  9
$SPLINETYPE
 70
     6
  9
$SPLINESEGS
 70
     8
  9
$ATTDIA
 70
     0
  9
$ATTREQ
 70
     1
  9
$HANDLING
 70
     1
  9
$HANDSEED
  5
167
  9
$SURFTAB1
 70
     6
  9
$SURFTAB2
 70
     6
  9
$SURFTYPE
 70
     6
  9
$SURFU
 70
     6
  9
$SURFV
 70
     6
  9
$UCSNAME
  2

  9
$UCSORG
 10
0.0
 20
0.0
 30
0.0
  9
$UCSXDIR
 10
1.0
 20
0.0
 30
0.0
  9
$UCSYDIR
 10
0.0
 20
1.0
 30
0.0
  9
$PUCSNAME
  2

  9
$PUCSORG
 10
0.0
 20
0.0
 30
0.0
  9
$PUCSXDIR
 10
1.0
 20
0.0
 30
0.0
  9
$PUCSYDIR
 10
0.0
 20
1.0
 30
0.0
  9
$USERI1
 70
     0
  9
$USERI2
 70
     0
  9
$USERI3
 70
     0
  9
$USERI4
 70
     0
  9
$USERI5
 70
     0
  9
$USERR1
 40
0.0
  9
$USERR2
 40
0.0
  9
$USERR3
 40
0.0
  9
$USERR4
 40
0.0
  9
$USERR5
 40
0.0
  9
$WORLDVIEW
 70
     1
  9
$SHADEDGE
 70
     3
  9
$SHADEDIF
 70
    70
  9
$TILEMODE
 70
     1
  9
$MAXACTVP
 70
    64
  9
$PINSBASE
 10
0.0
 20
0.0
 30
0.0
  9
$PLIMCHECK
 70
     0
  9
$PEXTMIN
 10
1.000000000000000E+20
 20
1.000000000000000E+20
 30
1.000000000000000E+20
  9
$PEXTMAX
 10
-1.000000000000000E+20
 20
-1.000000000000000E+20
 30
-1.000000000000000E+20
  9
$PLIMMIN
 10
0.0
 20
0.0
  9
$PLIMMAX
 10
12.0
 20
9.0
  9
$UNITMODE
 70
     0
  9
$VISRETAIN
 70
     1
  9
$PLINEGEN
 70
     0
  9
$PSLTSCALE
 70
     1
  9
$TREEDEPTH
 70
  3020
  9
$PICKSTYLE
 70
     1
  9
$CMLSTYLE
  2
STANDARD
  9
$CMLJUST
 70
     0
  9
$CMLSCALE
 40
1.0
  9
$PROXYGRAPHICS
 70
     1
  9
$MEASUREMENT
 70
     0
  0
ENDSEC
  0
SECTION
  2
CLASSES
  0
CLASS
  1
ACDBDICTIONARYWDFLT
  2
AcDbDictionaryWithDefault
  3
ObjectDBX Classes
 90
        0
280
     0
281
     0
  0
CLASS
  1
VISUALSTYLE
  2
AcDbVisualStyle
  3
ObjectDBX Classes
 90
     4095
280
     0
281
     0
  0
CLASS
  1
XRECORD
  2
AcDbXrecord
  3
AutoCAD 2000
 90
        0
280
     0
281
     0
  0
CLASS
  1
LWPOLYLINE
  2
AcDbPolyline
  3
AutoCAD 2000
 90
        0
280
     0
281
     1
  0
CLASS
  1
HATCH
  2
AcDbHatch
  3
AutoCAD 2000
 90
        0
280
     0
281
     1
  0
CLASS
  1
ACDBPLACEHOLDER
  2
AcDbPlaceHolder
  3
ObjectDBX Classes
 90
        0
280
     0
281
     0
  0
CLASS
  1
LAYOUT
  2
AcDbLayout
  3
ObjectDBX Classes
 90
        0
280
     0
281
     0
  0
ENDSEC
  0
SECTION
  2
TABLES
  0
TABLE
  2
VPORT
  5
8
330
0
100
AcDbSymbolTable
 70
     1
  0
VPORT
  5
29
330
8
100
AcDbSymbolTableRecord
100
AcDbViewportTableRecord
  2
*ACTIVE
 70
     0
 10
0.0
 20
0.0
 11
1.0
 21
1.0
 12
0.0
 22
0.0
 13
0.0
 23
0.0
 14
0.5
 24
0.5
 15
0.5
 25
0.5
 16
0.0
 26
0.0
 36
1.0
 17
149.9992851730037
 27
-149.9992851730037
 37
0.0
 40
299.9985703460073
 41
1.0
 42
50.0
 43
0.0
 44
0.0
 50
0.0
 51
0.0
 71
     0
 72
   100
 73
     1
 74
     3
 75
     0
 76
     0
 77
     0
 78
     0
  0
ENDTAB
  0
TABLE
  2
LTYPE
  5
5
330
0
100
AcDbSymbolTable
 70
     1
  0
LTYPE
  5
14
330
5
100
AcDbSymbolTableRecord
100
AcDbLinetypeTableRecord
  2
BYBLOCK
 70
     0
  3

 72
    65
 73
     0
 40
0.0
  0
LTYPE
  5
15
330
5
100
AcDbSymbolTableRecord
100
AcDbLinetypeTableRecord
  2
BYLAYER
 70
     0
  3

 72
    65
 73
     0
 40
0.0
  0
LTYPE
  5
16
330
5
100
AcDbSymbolTableRecord
100
AcDbLinetypeTableRecord
  2
CONTINUOUS
 70
     0
  3
Solid line
 72
    65
 73
     0
 40
0.0
  0
ENDTAB
  0
TABLE
  2
LAYER
  5
2
330
0
100
AcDbSymbolTable
 70
     2
  0
LAYER
  5
10
330
2
100
AcDbSymbolTableRecord
100
AcDbLayerTableRecord
  2
0
 70
     0
 62
     7
  6
CONTINUOUS
  0
LAYER
  5
3B
330
2
100
AcDbSymbolTableRecord
100
AcDbLayerTableRecord
  2
LAYER_1
 70
     0
 62
     7
  6
CONTINUOUS
  0
ENDTAB
  0
TABLE
  2
STYLE
  5
3
330
0
100
AcDbSymbolTable
 70
     1
  0
STYLE
  5
11
330
3
100
AcDbSymbolTableRecord
100
AcDbTextStyleTableRecord
  2
STANDARD
 70
     0
 40
0.0
 41
1.0
 50
0.0
 71
     0
 42
0.2
  3
txt
  4

  0
ENDTAB
  0
TABLE
  2
VIEW
  5
6
330
0
100
AcDbSymbolTable
 70
     0
  0
ENDTAB
  0
TABLE
  2
UCS
  5
7
330
0
100
AcDbSymbolTable
 70
     0
  0
ENDTAB
  0
TABLE
  2
APPID
  5
9
330
0
100
AcDbSymbolTable
 70
     1
  0
APPID
  5
12
330
9
100
AcDbSymbolTableRecord
100
AcDbRegAppTableRecord
  2
ACAD
 70
     0
  0
ENDTAB
  0
TABLE
  2
DIMSTYLE
  5
A
330
0
100
AcDbSymbolTable
 70
     1
  0
DIMSTYLE
105
27
330
A
100
AcDbSymbolTableRecord
100
AcDbDimStyleTableRecord
  2
STANDARD
 70
     0
  3

  4

  5

  6

  7

 40
1.0
 41
0.18
 42
0.0625
 43
0.38
 44
0.18
 45
0.0
 46
0.0
 47
0.0
 48
0.0
140
0.18
141
0.09
142
0.0
143
25.4
144
1.0
145
0.0
146
1.0
147
0.09
 71
     0
 72
     0
 73
     1
 74
     1
 75
     0
 76
     0
 77
     0
 78
     0
170
     0
171
     2
172
     0
173
     0
174
     0
175
     0
176
     0
177
     0
178
     0
270
     2
271
     4
272
     4
273
     2
274
     2
340
11
275
     0
280
     0
281
     0
282
     0
283
     1
284
     0
285
     0
286
     0
287
     3
288
     0
  0
ENDTAB
  0
TABLE
  2
BLOCK_RECORD
  5
1
330
0
100
AcDbSymbolTable
 70
    14
  0
BLOCK_RECORD
  5
1F
330
1
100
AcDbSymbolTableRecord
100
AcDbBlockTableRecord
  2
*MODEL_SPACE
  0
BLOCK_RECORD
  5
1B
330
1
100
AcDbSymbolTableRecord
100
AcDbBlockTableRecord
  2
*PAPER_SPACE
  0
BLOCK_RECORD
  5
3C
330
1
100
AcDbSymbolTableRecord
100
AcDbBlockTableRecord
  2
BLOCK_2
  0
BLOCK_RECORD
  5
5C
330
1
100
AcDbSymbolTableRecord
100
AcDbBlockTableRecord
  2
BLOCK_3
  0
BLOCK_RECORD
  5
7C
330
1
100
AcDbSymbolTableRecord
100
AcDbBlockTableRecord
  2
BLOCK_4
  0
BLOCK_RECORD
  5
9C
330
1
100
AcDbSymbolTableRecord
100
AcDbBlockTableRecord
  2
BLOCK_5
  0
BLOCK_RECORD
  5
A1
330
1
100
AcDbSymbolTableRecord
100
AcDbBlockTableRecord
  2
BLOCK_6
  0
BLOCK_RECORD
  5
C2
330
1
100
AcDbSymbolTableRecord
100
AcDbBlockTableRecord
  2
BLOCK_7
  0
BLOCK_RECORD
  5
D8
330
1
100
AcDbSymbolTableRecord
100
AcDbBlockTableRecord
  2
BLOCK_8
  0
BLOCK_RECORD
  5
EE
330
1
100
AcDbSymbolTableRecord
100
AcDbBlockTableRecord
  2
BLOCK_9
  0
BLOCK_RECORD
  5
104
330
1
100
AcDbSymbolTableRecord
100
AcDbBlockTableRecord
  2
BLOCK_10
  0
BLOCK_RECORD
  5
116
330
1
100
AcDbSymbolTableRecord
100
AcDbBlockTableRecord
  2
BLOCK_11
  0
BLOCK_RECORD
  5
121
330
1
100
AcDbSymbolTableRecord
100
AcDbBlockTableRecord
  2
BLOCK_12
  0
BLOCK_RECORD
  5
12C
330
1
100
AcDbSymbolTableRecord
100
AcDbBlockTableRecord
  2
BLOCK_13
  0
BLOCK_RECORD
  5
137
330
1
100
AcDbSymbolTableRecord
100
AcDbBlockTableRecord
  2
BLOCK_14
  0
ENDTAB
  0
ENDSEC
  0
SECTION
  2
BLOCKS
  0
BLOCK
  5
20
330
1F
100
AcDbEntity
  8
0
100
AcDbBlockBegin
  2
*MODEL_SPACE
 70
     0
 71
     0
 10
0.0
 20
0.0
 30
0.0
  3
*MODEL_SPACE
  1

  0
ENDBLK
  5
21
330
1F
100
AcDbEntity
  8
0
100
AcDbBlockEnd
  0
BLOCK
  5
1C
330
1B
100
AcDbEntity
 67
     1
  8
0
100
AcDbBlockBegin
  2
*PAPER_SPACE
 70
     0
 71
     0
 10
0.0
 20
0.0
 30
0.0
  3
*PAPER_SPACE
  1

  0
ENDBLK
  5
1D
330
1B
100
AcDbEntity
 67
     1
  8
0
100
AcDbBlockEnd
  0
BLOCK
  5
3E
330
3C
100
AcDbEntity
  8
0
100
AcDbBlockBegin
  2
BLOCK_2
 70
     0
 71
     0
 10
0.0
 20
0.0
 30
0.0
  3
BLOCK_2
  1

  0
POLYLINE
  5
40
330
3C
100
AcDbEntity
  8
LAYER_1
 62
    83
100
AcDb2dPolyline
 66
     1
 10
0.0
 20
0.0
 30
0.0
  0
VERTEX
  5
41
330
40
100
AcDbEntity
  8
LAYER_1
 62
    83
100
AcDbVertex
100
AcDb2dVertex
 10
12.3766777855343
 20
-157.0860188409368
 30
0.0
  0
VERTEX
  5
42
330
40
100
AcDbEntity
  8
LAYER_1
 62
    83
100
AcDbVertex
100
AcDb2dVertex
 10
12.3766777855343
 20
-160.1983181023115
 30
0.0
  0
VERTEX
  5
43
330
40
100
AcDbEntity
  8
LAYER_1
 62
    83
100
AcDbVertex
100
AcDb2dVertex
 10
6.128652613485198
 20
-160.1983181023115
 30
0.0
  0
VERTEX
  5
44
330
40
100
AcDbEntity
  8
LAYER_1
 62
    83
100
AcDbVertex
100
AcDb2dVertex
 10
6.128652613485198
 20
-157.0860188409368
 30
0.0
  0
VERTEX
  5
45
330
40
100
AcDbEntity
  8
LAYER_1
 62
    83
100
AcDbVertex
100
AcDb2dVertex
 10
12.3766777855343
 20
-157.0860188409368
 30
0.0
  0
SEQEND
  5
46
330
40
100
AcDbEntity
  8
LAYER_1
  0
POLYLINE
  5
47
330
3C
100
AcDbEntity
  8
LAYER_1
 62
    83
100
AcDb2dPolyline
 66
     1
 10
0.0
 20
0.0
 30
0.0
  0
VERTEX
  5
48
330
47
100
AcDbEntity
  8
LAYER_1
 62
    83
100
AcDbVertex
100
AcDb2dVertex
 10
30.66290011169191
 20
-157.0860188409368
 30
0.0
  0
VERTEX
  5
49
330
47
100
AcDbEntity
  8
LAYER_1
 62
    83
100
AcDbVertex
100
AcDb2dVertex
 10
30.66290011169191
 20
-160.1983181023115
 30
0.0
  0
VERTEX
  5
4A
330
47
100
AcDbEntity
  8
LAYER_1
 62
    83
100
AcDbVertex
100
AcDb2dVertex
 10
24.41487493964281
 20
-160.1983181023115
 30
0.0
  0
VERTEX
  5
4B
330
47
100
AcDbEntity
  8
LAYER_1
 62
    83
100
AcDbVertex
100
AcDb2dVertex
 10
24.41487493964281
 20
-157.0860188409368
 30
0.0
  0
VERTEX
  5
4C
330
47
100
AcDbEntity
  8
LAYER_1
 62
    83
100
AcDbVertex
100
AcDb2dVertex
 10
30.66290011169191
 20
-157.0860188409368
 30
0.0
  0
SEQEND
  5
4D
330
47
100
AcDbEntity
  8
LAYER_1
  0
POLYLINE
  5
4E
330
3C
100
AcDbEntity
  8
LAYER_1
 62
    83
100
AcDb2dPolyline
 66
     1
 10
0.0
 20
0.0
 30
0.0
  0
VERTEX
  5
4F
330
4E
100
AcDbEntity
  8
LAYER_1
 62
    83
100
AcDbVertex
100
AcDb2dVertex
 10
12.37633327598578
 20
-139.4981173696394
 30
0.0
  0
VERTEX
  5
50
330
4E
100
AcDbEntity
  8
LAYER_1
 62
    83
100
AcDbVertex
100
AcDb2dVertex
 10
12.37633327598578
 20
-142.6111056501111
 30
0.0
  0
VERTEX
  5
51
330
4E
100
AcDbEntity
  8
LAYER_1
 62
    83
100
AcDbVertex
100
AcDb2dVertex
 10
6.128308103936673
 20
-142.6111056501111
 30
0.0
  0
VERTEX
  5
52
330
4E
100
AcDbEntity
  8
LAYER_1
 62
    83
100
AcDbVertex
100
AcDb2dVertex
 10
6.128308103936673
 20
-139.4981173696394
 30
0.0
  0
VERTEX
  5
53
330
4E
100
AcDbEntity
  8
LAYER_1
 62
    83
100
AcDbVertex
100
AcDb2dVertex
 10
12.37633327598578
 20
-139.4981173696394
 30
0.0
  0
SEQEND
  5
54
330
4E
100
AcDbEntity
  8
LAYER_1
  0
POLYLINE
  5
55
330
3C
100
AcDbEntity
  8
LAYER_1
 62
    83
100
AcDb2dPolyline
 66
     1
 10
0.0
 20
0.0
 30
0.0
  0
VERTEX
  5
56
330
55
100
AcDbEntity
  8
LAYER_1
 62
    83
100
AcDbVertex
100
AcDb2dVertex
 10
30.66255560214339
 20
-139.4981173696394
 30
0.0
  0
VERTEX
  5
57
330
55
100
AcDbEntity
  8
LAYER_1
 62
    83
100
AcDbVertex
100
AcDb2dVertex
 10
30.66255560214339
 20
-142.6111056501111
 30
0.0
  0
VERTEX
  5
58
330
55
100
AcDbEntity
  8
LAYER_1
 62
    83
100
AcDbVertex
100
AcDb2dVertex
 10
24.41453043009428
 20
-142.6111056501111
 30
0.0
  0
VERTEX
  5
59
330
55
100
AcDbEntity
  8
LAYER_1
 62
    83
100
AcDbVertex
100
AcDb2dVertex
 10
24.41453043009428
 20
-139.4981173696394
 30
0.0
  0
VERTEX
  5
5A
330
55
100
AcDbEntity
  8
LAYER_1
 62
    83
100
AcDbVertex
100
AcDb2dVertex
 10
30.66255560214339
 20
-139.4981173696394
 30
0.0
  0
SEQEND
  5
5B
330
55
100
AcDbEntity
  8
LAYER_1
  0
ENDBLK
  5
3F
330
3C
100
AcDbEntity
  8
0
100
AcDbBlockEnd
  0
BLOCK
  5
5E
330
5C
100
AcDbEntity
  8
0
100
AcDbBlockBegin
  2
BLOCK_3
 70
     0
 71
     0
 10
0.0
 20
0.0
 30
0.0
  3
BLOCK_3
  1

  0
POLYLINE
  5
60
330
5C
100
AcDbEntity
  8
LAYER_1
 62
    83
100
AcDb2dPolyline
 66
     1
 10
0.0
 20
0.0
 30
0.0
  0
VERTEX
  5
61
330
60
100
AcDbEntity
  8
LAYER_1
 62
    83
100
AcDbVertex
100
AcDb2dVertex
 10
277.3260524480296
 20
-157.0856743313883
 30
0.0
  0
VERTEX
  5
62
330
60
100
AcDbEntity
  8
LAYER_1
 62
    83
100
AcDbVertex
100
AcDb2dVertex
 10
277.3260524480296
 20
-160.1983181023115
 30
0.0
  0
VERTEX
  5
63
330
60
100
AcDbEntity
  8
LAYER_1
 62
    83
100
AcDbVertex
100
AcDb2dVertex
 10
271.0780272759805
 20
-160.1983181023115
 30
0.0
  0
VERTEX
  5
64
330
60
100
AcDbEntity
  8
LAYER_1
 62
    83
100
AcDbVertex
100
AcDb2dVertex
 10
271.0780272759805
 20
-157.0856743313883
 30
0.0
  0
VERTEX
  5
65
330
60
100
AcDbEntity
  8
LAYER_1
 62
    83
100
AcDbVertex
100
AcDb2dVertex
 10
277.3260524480296
 20
-157.0856743313883
 30
0.0
  0
SEQEND
  5
66
330
60
100
AcDbEntity
  8
LAYER_1
  0
POLYLINE
  5
67
330
5C
100
AcDbEntity
  8
LAYER_1
 62
    83
100
AcDb2dPolyline
 66
     1
 10
0.0
 20
0.0
 30
0.0
  0
VERTEX
  5
68
330
67
100
AcDbEntity
  8
LAYER_1
 62
    83
100
AcDbVertex
100
AcDb2dVertex
 10
295.6126192837357
 20
-157.0856743313883
 30
0.0
  0
VERTEX
  5
69
330
67
100
AcDbEntity
  8
LAYER_1
 62
    83
100
AcDbVertex
100
AcDb2dVertex
 10
295.6126192837357
 20
-160.1983181023115
 30
0.0
  0
VERTEX
  5
6A
330
67
100
AcDbEntity
  8
LAYER_1
 62
    83
100
AcDbVertex
100
AcDb2dVertex
 10
289.3645941116866
 20
-160.1983181023115
 30
0.0
  0
VERTEX
  5
6B
330
67
100
AcDbEntity
  8
LAYER_1
 62
    83
100
AcDbVertex
100
AcDb2dVertex
 10
289.3645941116866
 20
-157.0856743313883
 30
0.0
  0
VERTEX
  5
6C
330
67
100
AcDbEntity
  8
LAYER_1
 62
    83
100
AcDbVertex
100
AcDb2dVertex
 10
295.6126192837357
 20
-157.0856743313883
 30
0.0
  0
SEQEND
  5
6D
330
67
100
AcDbEntity
  8
LAYER_1
  0
POLYLINE
  5
6E
330
5C
100
AcDbEntity
  8
LAYER_1
 62
    83
100
AcDb2dPolyline
 66
     1
 10
0.0
 20
0.0
 30
0.0
  0
VERTEX
  5
6F
330
6E
100
AcDbEntity
  8
LAYER_1
 62
    83
100
AcDbVertex
100
AcDb2dVertex
 10
277.3260524480296
 20
-139.4981173696394
 30
0.0
  0
VERTEX
  5
70
330
6E
100
AcDbEntity
  8
LAYER_1
 62
    83
100
AcDbVertex
100
AcDb2dVertex
 10
277.3260524480296
 20
-142.6111056501111
 30
0.0
  0
VERTEX
  5
71
330
6E
100
AcDbEntity
  8
LAYER_1
 62
    83
100
AcDbVertex
100
AcDb2dVertex
 10
271.0780272759805
 20
-142.6111056501111
 30
0.0
  0
VERTEX
  5
72
330
6E
100
AcDbEntity
  8
LAYER_1
 62
    83
100
AcDbVertex
100
AcDb2dVertex
 10
271.0780272759805
 20
-139.4981173696394
 30
0.0
  0
VERTEX
  5
73
330
6E
100
AcDbEntity
  8
LAYER_1
 62
    83
100
AcDbVertex
100
AcDb2dVertex
 10
277.3260524480296
 20
-139.4981173696394
 30
0.0
  0
SEQEND
  5
74
330
6E
100
AcDbEntity
  8
LAYER_1
  0
POLYLINE
  5
75
330
5C
100
AcDbEntity
  8
LAYER_1
 62
    83
100
AcDb2dPolyline
 66
     1
 10
0.0
 20
0.0
 30
0.0
  0
VERTEX
  5
76
330
75
100
AcDbEntity
  8
LAYER_1
 62
    83
100
AcDbVertex
100
AcDb2dVertex
 10
295.6119302646387
 20
-139.4981173696394
 30
0.0
  0
VERTEX
  5
77
330
75
100
AcDbEntity
  8
LAYER_1
 62
    83
100
AcDbVertex
100
AcDb2dVertex
 10
295.6119302646387
 20
-142.6111056501111
 30
0.0
  0
VERTEX
  5
78
330
75
100
AcDbEntity
  8
LAYER_1
 62
    83
100
AcDbVertex
100
AcDb2dVertex
 10
289.3639050925896
 20
-142.6111056501111
 30
0.0
  0
VERTEX
  5
79
330
75
100
AcDbEntity
  8
LAYER_1
 62
    83
100
AcDbVertex
100
AcDb2dVertex
 10
289.3639050925896
 20
-139.4981173696394
 30
0.0
  0
VERTEX
  5
7A
330
75
100
AcDbEntity
  8
LAYER_1
 62
    83
100
AcDbVertex
100
AcDb2dVertex
 10
295.6119302646387
 20
-139.4981173696394
 30
0.0
  0
SEQEND
  5
7B
330
75
100
AcDbEntity
  8
LAYER_1
  0
ENDBLK
  5
5F
330
5C
100
AcDbEntity
  8
0
100
AcDbBlockEnd
  0
BLOCK
  5
7E
330
7C
100
AcDbEntity
  8
0
100
AcDbBlockBegin
  2
BLOCK_4
 70
     0
 71
     0
 10
0.0
 20
0.0
 30
0.0
  3
BLOCK_4
  1

  0
POLYLINE
  5
80
330
7C
100
AcDbEntity
  8
LAYER_1
 62
    83
100
AcDb2dPolyline
 66
     1
 10
0.0
 20
0.0
 30
0.0
  0
VERTEX
  5
81
330
80
100
AcDbEntity
  8
LAYER_1
 62
    83
100
AcDbVertex
100
AcDb2dVertex
 10
142.444363028625
 20
-9.179801429996717
 30
0.0
  0
VERTEX
  5
82
330
80
100
AcDbEntity
  8
LAYER_1
 62
    83
100
AcDbVertex
100
AcDb2dVertex
 10
139.3313747481533
 20
-9.179801429996717
 30
0.0
  0
VERTEX
  5
83
330
80
100
AcDbEntity
  8
LAYER_1
 62
    83
100
AcDbVertex
100
AcDb2dVertex
 10
139.3313747481533
 20
-2.931776257947611
 30
0.0
  0
VERTEX
  5
84
330
80
100
AcDbEntity
  8
LAYER_1
 62
    83
100
AcDbVertex
100
AcDb2dVertex
 10
142.444363028625
 20
-2.931776257947611
 30
0.0
  0
VERTEX
  5
85
330
80
100
AcDbEntity
  8
LAYER_1
 62
    83
100
AcDbVertex
100
AcDb2dVertex
 10
142.444363028625
 20
-9.179801429996717
 30
0.0
  0
SEQEND
  5
86
330
80
100
AcDbEntity
  8
LAYER_1
  0
POLYLINE
  5
87
330
7C
100
AcDbEntity
  8
LAYER_1
 62
    83
100
AcDb2dPolyline
 66
     1
 10
0.0
 20
0.0
 30
0.0
  0
VERTEX
  5
88
330
87
100
AcDbEntity
  8
LAYER_1
 62
    83
100
AcDbVertex
100
AcDb2dVertex
 10
142.444363028625
 20
-27.46602375615433
 30
0.0
  0
VERTEX
  5
89
330
87
100
AcDbEntity
  8
LAYER_1
 62
    83
100
AcDbVertex
100
AcDb2dVertex
 10
139.3313747481533
 20
-27.46602375615433
 30
0.0
  0
VERTEX
  5
8A
330
87
100
AcDbEntity
  8
LAYER_1
 62
    83
100
AcDbVertex
100
AcDb2dVertex
 10
139.3313747481533
 20
-21.21799858410522
 30
0.0
  0
VERTEX
  5
8B
330
87
100
AcDbEntity
  8
LAYER_1
 62
    83
100
AcDbVertex
100
AcDb2dVertex
 10
142.444363028625
 20
-21.21799858410522
 30
0.0
  0
VERTEX
  5
8C
330
87
100
AcDbEntity
  8
LAYER_1
 62
    83
100
AcDbVertex
100
AcDb2dVertex
 10
142.444363028625
 20
-27.46602375615433
 30
0.0
  0
SEQEND
  5
8D
330
87
100
AcDbEntity
  8
LAYER_1
  0
POLYLINE
  5
8E
330
7C
100
AcDbEntity
  8
LAYER_1
 62
    83
100
AcDb2dPolyline
 66
     1
 10
0.0
 20
0.0
 30
0.0
  0
VERTEX
  5
8F
330
8E
100
AcDbEntity
  8
LAYER_1
 62
    83
100
AcDbVertex
100
AcDb2dVertex
 10
160.0315754808254
 20
-9.179456920448192
 30
0.0
  0
VERTEX
  5
90
330
8E
100
AcDbEntity
  8
LAYER_1
 62
    83
100
AcDbVertex
100
AcDb2dVertex
 10
156.9185872003537
 20
-9.179456920448192
 30
0.0
  0
VERTEX
  5
91
330
8E
100
AcDbEntity
  8
LAYER_1
 62
    83
100
AcDbVertex
100
AcDb2dVertex
 10
156.9185872003537
 20
-2.931431748399087
 30
0.0
  0
VERTEX
  5
92
330
8E
100
AcDbEntity
  8
LAYER_1
 62
    83
100
AcDbVertex
100
AcDb2dVertex
 10
160.0315754808254
 20
-2.931431748399087
 30
0.0
  0
VERTEX
  5
93
330
8E
100
AcDbEntity
  8
LAYER_1
 62
    83
100
AcDbVertex
100
AcDb2dVertex
 10
160.0315754808254
 20
-9.179456920448192
 30
0.0
  0
SEQEND
  5
94
330
8E
100
AcDbEntity
  8
LAYER_1
  0
POLYLINE
  5
95
330
7C
100
AcDbEntity
  8
LAYER_1
 62
    83
100
AcDb2dPolyline
 66
     1
 10
0.0
 20
0.0
 30
0.0
  0
VERTEX
  5
96
330
95
100
AcDbEntity
  8
LAYER_1
 62
    83
100
AcDbVertex
100
AcDb2dVertex
 10
160.0315754808254
 20
-27.4656792466058
 30
0.0
  0
VERTEX
  5
97
330
95
100
AcDbEntity
  8
LAYER_1
 62
    83
100
AcDbVertex
100
AcDb2dVertex
 10
156.9185872003537
 20
-27.4656792466058
 30
0.0
  0
VERTEX
  5
98
330
95
100
AcDbEntity
  8
LAYER_1
 62
    83
100
AcDbVertex
100
AcDb2dVertex
 10
156.9185872003537
 20
-21.2176540745567
 30
0.0
  0
VERTEX
  5
99
330
95
100
AcDbEntity
  8
LAYER_1
 62
    83
100
AcDbVertex
100
AcDb2dVertex
 10
160.0315754808254
 20
-21.2176540745567
 30
0.0
  0
VERTEX
  5
9A
330
95
100
AcDbEntity
  8
LAYER_1
 62
    83
100
AcDbVertex
100
AcDb2dVertex
 10
160.0315754808254
 20
-27.4656792466058
 30
0.0
  0
SEQEND
  5
9B
330
95
100
AcDbEntity
  8
LAYER_1
  0
ENDBLK
  5
7F
330
7C
100
AcDbEntity
  8
0
100
AcDbBlockEnd
  0
BLOCK
  5
9E
330
9C
100
AcDbEntity
  8
0
100
AcDbBlockBegin
  2
BLOCK_5
 70
     0
 71
     0
 10
0.0
 20
0.0
 30
0.0
  3
BLOCK_5
  1

  0
SPLINE
  5
A0
330
9C
100
AcDbEntity
  8
LAYER_1
 62
     1
100
AcDbSpline
210
0.0
220
0.0
230
1.0
 70
    11
 71
     3
 72
    17
 73
    13
 74
     0
 42
0.0000000001
 43
0.0000000001
 40
0.0
 40
0.0
 40
0.0
 40
0.0
 40
1.0
 40
1.0
 40
1.0
 40
2.0
 40
2.0
 40
2.0
 40
3.0
 40
3.0
 40
3.0
 40
4.0
 40
4.0
 40
4.0
 40
4.0
 10
299.1817382064546
 20
-149.8494235193953
 30
0.0
 10
299.1817382064546
 20
-232.4099310399878
 30
0.0
 10
232.2466335139869
 20
-299.3481363183922
 30
0.0
 10
149.6821641335864
 20
-299.3481363183922
 30
0.0
 10
67.1161444602175
 20
-299.3481363183922
 30
0.0
 10
0.181384277298404
 20
-232.4099310399878
 30
0.0
 10
0.181384277298404
 20
-149.8494235193953
 30
0.0
 10
0.181384277298404
 20
-67.28082002441244
 30
0.0
 10
67.1161444602175
 20
-0.3482991535587586
 30
0.0
 10
149.6821641335864
 20
-0.3482991535587586
 30
0.0
 10
232.2466335139869
 20
-0.3482991535587586
 30
0.0
 10
299.1817382064546
 20
-67.28082002441244
 30
0.0
 10
299.1817382064546
 20
-149.8494235193953
 30
0.0
  0
ENDBLK
  5
9F
330
9C
100
AcDbEntity
  8
0
100
AcDbBlockEnd
  0
BLOCK
  5
A3
330
A1
100
AcDbEntity
  8
0
100
AcDbBlockBegin
  2
BLOCK_6
 70
     0
 71
     0
 10
0.0
 20
0.0
 30
0.0
  3
BLOCK_6
  1

  0
POLYLINE
  5
A5
330
A1
100
AcDbEntity
  8
LAYER_1
 62
    83
100
AcDb2dPolyline
 66
     1
 10
0.0
 20
0.0
 30
0.0
  0
VERTEX
  5
A6
330
A5
100
AcDbEntity
  8
LAYER_1
 62
    83
100
AcDbVertex
100
AcDb2dVertex
 10
142.444363028625
 20
-275.4367620839186
 30
0.0
  0
VERTEX
  5
A7
330
A5
100
AcDbEntity
  8
LAYER_1
 62
    83
100
AcDbVertex
100
AcDb2dVertex
 10
139.3313747481533
 20
-275.4367620839186
 30
0.0
  0
VERTEX
  5
A8
330
A5
100
AcDbEntity
  8
LAYER_1
 62
    83
100
AcDbVertex
100
AcDb2dVertex
 10
139.3313747481533
 20
-269.1887369118695
 30
0.0
  0
VERTEX
  5
A9
330
A5
100
AcDbEntity
  8
LAYER_1
 62
    83
100
AcDbVertex
100
AcDb2dVertex
 10
142.444363028625
 20
-269.1887369118695
 30
0.0
  0
VERTEX
  5
AA
330
A5
100
AcDbEntity
  8
LAYER_1
 62
    83
100
AcDbVertex
100
AcDb2dVertex
 10
142.444363028625
 20
-275.4367620839186
 30
0.0
  0
SEQEND
  5
AB
330
A5
100
AcDbEntity
  8
LAYER_1
  0
POLYLINE
  5
AC
330
A1
100
AcDbEntity
  8
LAYER_1
 62
    83
100
AcDb2dPolyline
 66
     1
 10
0.0
 20
0.0
 30
0.0
  0
VERTEX
  5
AD
330
AC
100
AcDbEntity
  8
LAYER_1
 62
    83
100
AcDbVertex
100
AcDb2dVertex
 10
142.444363028625
 20
-293.7226399005277
 30
0.0
  0
VERTEX
  5
AE
330
AC
100
AcDbEntity
  8
LAYER_1
 62
    83
100
AcDbVertex
100
AcDb2dVertex
 10
139.3313747481533
 20
-293.7226399005277
 30
0.0
  0
VERTEX
  5
AF
330
AC
100
AcDbEntity
  8
LAYER_1
 62
    83
100
AcDbVertex
100
AcDb2dVertex
 10
139.3313747481533
 20
-287.4746147284786
 30
0.0
  0
VERTEX
  5
B0
330
AC
100
AcDbEntity
  8
LAYER_1
 62
    83
100
AcDbVertex
100
AcDb2dVertex
 10
142.444363028625
 20
-287.4746147284786
 30
0.0
  0
VERTEX
  5
B1
330
AC
100
AcDbEntity
  8
LAYER_1
 62
    83
100
AcDbVertex
100
AcDb2dVertex
 10
142.444363028625
 20
-293.7226399005277
 30
0.0
  0
SEQEND
  5
B2
330
AC
100
AcDbEntity
  8
LAYER_1
  0
POLYLINE
  5
B3
330
A1
100
AcDbEntity
  8
LAYER_1
 62
    83
100
AcDb2dPolyline
 66
     1
 10
0.0
 20
0.0
 30
0.0
  0
VERTEX
  5
B4
330
B3
100
AcDbEntity
  8
LAYER_1
 62
    83
100
AcDbVertex
100
AcDb2dVertex
 10
160.0315754808254
 20
-275.4360730648215
 30
0.0
  0
VERTEX
  5
B5
330
B3
100
AcDbEntity
  8
LAYER_1
 62
    83
100
AcDbVertex
100
AcDb2dVertex
 10
156.9185872003537
 20
-275.4360730648215
 30
0.0
  0
VERTEX
  5
B6
330
B3
100
AcDbEntity
  8
LAYER_1
 62
    83
100
AcDbVertex
100
AcDb2dVertex
 10
156.9185872003537
 20
-269.1880478927724
 30
0.0
  0
VERTEX
  5
B7
330
B3
100
AcDbEntity
  8
LAYER_1
 62
    83
100
AcDbVertex
100
AcDb2dVertex
 10
160.0315754808254
 20
-269.1880478927724
 30
0.0
  0
VERTEX
  5
B8
330
B3
100
AcDbEntity
  8
LAYER_1
 62
    83
100
AcDbVertex
100
AcDb2dVertex
 10
160.0315754808254
 20
-275.4360730648215
 30
0.0
  0
SEQEND
  5
B9
330
B3
100
AcDbEntity
  8
LAYER_1
  0
POLYLINE
  5
BA
330
A1
100
AcDbEntity
  8
LAYER_1
 62
    83
100
AcDb2dPolyline
 66
     1
 10
0.0
 20
0.0
 30
0.0
  0
VERTEX
  5
BB
330
BA
100
AcDbEntity
  8
LAYER_1
 62
    83
100
AcDbVertex
100
AcDb2dVertex
 10
160.0315754808254
 20
-293.7226399005277
 30
0.0
  0
VERTEX
  5
BC
330
BA
100
AcDbEntity
  8
LAYER_1
 62
    83
100
AcDbVertex
100
AcDb2dVertex
 10
156.9185872003537
 20
-293.7226399005277
 30
0.0
  0
VERTEX
  5
BD
330
BA
100
AcDbEntity
  8
LAYER_1
 62
    83
100
AcDbVertex
100
AcDb2dVertex
 10
156.9185872003537
 20
-287.4746147284786
 30
0.0
  0
VERTEX
  5
BE
330
BA
100
AcDbEntity
  8
LAYER_1
 62
    83
100
AcDbVertex
100
AcDb2dVertex
 10
160.0315754808254
 20
-287.4746147284786
 30
0.0
  0
VERTEX
  5
BF
330
BA
100
AcDbEntity
  8
LAYER_1
 62
    83
100
AcDbVertex
100
AcDb2dVertex
 10
160.0315754808254
 20
-293.7226399005277
 30
0.0
  0
SEQEND
  5
C0
330
BA
100
AcDbEntity
  8
LAYER_1
  0
ENDBLK
  5
A4
330
A1
100
AcDbEntity
  8
0
100
AcDbBlockEnd
  0
BLOCK
  5
C4
330
C2
100
AcDbEntity
  8
0
100
AcDbBlockBegin
  2
BLOCK_7
 70
     0
 71
     0
 10
0.0
 20
0.0
 30
0.0
  3
BLOCK_7
  1

  0
POLYLINE
  5
C6
330
C2
100
AcDbEntity
  8
LAYER_1
 62
     1
100
AcDb2dPolyline
 66
     1
 10
0.0
 20
0.0
 30
0.0
  0
VERTEX
  5
C7
330
C6
100
AcDbEntity
  8
LAYER_1
 62
     1
100
AcDbVertex
100
AcDb2dVertex
 10
160.1959065354719
 20
-24.79865857669964
 30
0.0
  0
VERTEX
  5
C8
330
C6
100
AcDbEntity
  8
LAYER_1
 62
     1
100
AcDbVertex
100
AcDb2dVertex
 10
160.1959065354719
 20
-40.72499049546111
 30
0.0
  0
VERTEX
  5
C9
330
C6
100
AcDbEntity
  8
LAYER_1
 62
     1
100
AcDbVertex
100
AcDb2dVertex
 10
163.280300523416
 20
-40.72533500500964
 30
0.0
  0
VERTEX
  5
CA
330
C6
100
AcDbEntity
  8
LAYER_1
 62
     1
100
AcDbVertex
100
AcDb2dVertex
 10
163.280300523416
 20
-24.79848632192538
 30
0.0
  0
VERTEX
  5
CB
330
C6
100
AcDbEntity
  8
LAYER_1
 62
     1
100
AcDbVertex
100
AcDb2dVertex
 10
160.1959065354719
 20
-24.79865857669964
 30
0.0
  0
SEQEND
  5
CC
330
C6
100
AcDbEntity
  8
LAYER_1
  0
POLYLINE
  5
CD
330
C2
100
AcDbEntity
  8
LAYER_1
 62
     1
100
AcDb2dPolyline
 66
     1
 10
0.0
 20
0.0
 30
0.0
  0
VERTEX
  5
CE
330
CD
100
AcDbEntity
  8
LAYER_1
 62
     1
100
AcDbVertex
100
AcDb2dVertex
 10
136.2469807602091
 20
-24.79848632192538
 30
0.0
  0
VERTEX
  5
CF
330
CD
100
AcDbEntity
  8
LAYER_1
 62
     1
100
AcDbVertex
100
AcDb2dVertex
 10
136.2469807602091
 20
-40.72533500500964
 30
0.0
  0
VERTEX
  5
D0
330
CD
100
AcDbEntity
  8
LAYER_1
 62
     1
100
AcDbVertex
100
AcDb2dVertex
 10
139.3313747481533
 20
-40.72499049546111
 30
0.0
  0
VERTEX
  5
D1
330
CD
100
AcDbEntity
  8
LAYER_1
 62
     1
100
AcDbVertex
100
AcDb2dVertex
 10
139.3313747481533
 20
-24.79848632192538
 30
0.0
  0
VERTEX
  5
D2
330
CD
100
AcDbEntity
  8
LAYER_1
 62
     1
100
AcDbVertex
100
AcDb2dVertex
 10
136.2469807602091
 20
-24.79848632192538
 30
0.0
  0
SEQEND
  5
D3
330
CD
100
AcDbEntity
  8
LAYER_1
  0
ENDBLK
  5
C5
330
C2
100
AcDbEntity
  8
0
100
AcDbBlockEnd
  0
BLOCK
  5
DA
330
D8
100
AcDbEntity
  8
0
100
AcDbBlockBegin
  2
BLOCK_8
 70
     0
 71
     0
 10
0.0
 20
0.0
 30
0.0
  3
BLOCK_8
  1

  0
POLYLINE
  5
DC
330
D8
100
AcDbEntity
  8
LAYER_1
 62
     1
100
AcDb2dPolyline
 66
     1
 10
0.0
 20
0.0
 30
0.0
  0
VERTEX
  5
DD
330
DC
100
AcDbEntity
  8
LAYER_1
 62
     1
100
AcDbVertex
100
AcDb2dVertex
 10
139.2493814756043
 20
-275.4612222618639
 30
0.0
  0
VERTEX
  5
DE
330
DC
100
AcDbEntity
  8
LAYER_1
 62
     1
100
AcDbVertex
100
AcDb2dVertex
 10
139.2493814756043
 20
-259.5352348526509
 30
0.0
  0
VERTEX
  5
DF
330
DC
100
AcDbEntity
  8
LAYER_1
 62
     1
100
AcDbVertex
100
AcDb2dVertex
 10
136.1649874876601
 20
-259.5345458335539
 30
0.0
  0
VERTEX
  5
E0
330
DC
100
AcDbEntity
  8
LAYER_1
 62
     1
100
AcDbVertex
100
AcDb2dVertex
 10
136.1649874876601
 20
-275.4615667714124
 30
0.0
  0
VERTEX
  5
E1
330
DC
100
AcDbEntity
  8
LAYER_1
 62
     1
100
AcDbVertex
100
AcDb2dVertex
 10
139.2493814756043
 20
-275.4612222618639
 30
0.0
  0
SEQEND
  5
E2
330
DC
100
AcDbEntity
  8
LAYER_1
  0
POLYLINE
  5
E3
330
D8
100
AcDbEntity
  8
LAYER_1
 62
     1
100
AcDb2dPolyline
 66
     1
 10
0.0
 20
0.0
 30
0.0
  0
VERTEX
  5
E4
330
E3
100
AcDbEntity
  8
LAYER_1
 62
     1
100
AcDbVertex
100
AcDb2dVertex
 10
163.1983072508671
 20
-275.4615667714124
 30
0.0
  0
VERTEX
  5
E5
330
E3
100
AcDbEntity
  8
LAYER_1
 62
     1
100
AcDbVertex
100
AcDb2dVertex
 10
163.1983072508671
 20
-259.5345458335539
 30
0.0
  0
VERTEX
  5
E6
330
E3
100
AcDbEntity
  8
LAYER_1
 62
     1
100
AcDbVertex
100
AcDb2dVertex
 10
160.1139132629229
 20
-259.5352348526509
 30
0.0
  0
VERTEX
  5
E7
330
E3
100
AcDbEntity
  8
LAYER_1
 62
     1
100
AcDbVertex
100
AcDb2dVertex
 10
160.1139132629229
 20
-275.4615667714124
 30
0.0
  0
VERTEX
  5
E8
330
E3
100
AcDbEntity
  8
LAYER_1
 62
     1
100
AcDbVertex
100
AcDb2dVertex
 10
163.1983072508671
 20
-275.4615667714124
 30
0.0
  0
SEQEND
  5
E9
330
E3
100
AcDbEntity
  8
LAYER_1
  0
ENDBLK
  5
DB
330
D8
100
AcDbEntity
  8
0
100
AcDbBlockEnd
  0
BLOCK
  5
F0
330
EE
100
AcDbEntity
  8
0
100
AcDbBlockBegin
  2
BLOCK_9
 70
     0
 71
     0
 10
0.0
 20
0.0
 30
0.0
  3
BLOCK_9
  1

  0
POLYLINE
  5
F2
330
EE
100
AcDbEntity
  8
LAYER_1
 62
     1
100
AcDb2dPolyline
 66
     1
 10
0.0
 20
0.0
 30
0.0
  0
VERTEX
  5
F3
330
F2
100
AcDbEntity
  8
LAYER_1
 62
     1
100
AcDbVertex
100
AcDb2dVertex
 10
21.77024739039077
 20
-139.5670192793444
 30
0.0
  0
VERTEX
  5
F4
330
F2
100
AcDbEntity
  8
LAYER_1
 62
     1
100
AcDbVertex
100
AcDb2dVertex
 10
37.69657930915225
 20
-139.5670192793444
 30
0.0
  0
VERTEX
  5
F5
330
F2
100
AcDbEntity
  8
LAYER_1
 62
     1
100
AcDbVertex
100
AcDb2dVertex
 10
37.69692381870077
 20
-136.4826252914002
 30
0.0
  0
VERTEX
  5
F6
330
F2
100
AcDbEntity
  8
LAYER_1
 62
     1
100
AcDbVertex
100
AcDb2dVertex
 10
21.76990288084225
 20
-136.4826252914002
 30
0.0
  0
VERTEX
  5
F7
330
F2
100
AcDbEntity
  8
LAYER_1
 62
     1
100
AcDbVertex
100
AcDb2dVertex
 10
21.77024739039077
 20
-139.5670192793444
 30
0.0
  0
SEQEND
  5
F8
330
F2
100
AcDbEntity
  8
LAYER_1
  0
POLYLINE
  5
F9
330
EE
100
AcDbEntity
  8
LAYER_1
 62
     1
100
AcDb2dPolyline
 66
     1
 10
0.0
 20
0.0
 30
0.0
  0
VERTEX
  5
FA
330
F9
100
AcDbEntity
  8
LAYER_1
 62
     1
100
AcDbVertex
100
AcDb2dVertex
 10
21.76990288084225
 20
-163.5159450546071
 30
0.0
  0
VERTEX
  5
FB
330
F9
100
AcDbEntity
  8
LAYER_1
 62
     1
100
AcDbVertex
100
AcDb2dVertex
 10
37.69692381870077
 20
-163.5159450546071
 30
0.0
  0
VERTEX
  5
FC
330
F9
100
AcDbEntity
  8
LAYER_1
 62
     1
100
AcDbVertex
100
AcDb2dVertex
 10
37.69657930915225
 20
-160.431551066663
 30
0.0
  0
VERTEX
  5
FD
330
F9
100
AcDbEntity
  8
LAYER_1
 62
     1
100
AcDbVertex
100
AcDb2dVertex
 10
21.76990288084225
 20
-160.431551066663
 30
0.0
  0
VERTEX
  5
FE
330
F9
100
AcDbEntity
  8
LAYER_1
 62
     1
100
AcDbVertex
100
AcDb2dVertex
 10
21.76990288084225
 20
-163.5159450546071
 30
0.0
  0
SEQEND
  5
FF
330
F9
100
AcDbEntity
  8
LAYER_1
  0
ENDBLK
  5
F1
330
EE
100
AcDbEntity
  8
0
100
AcDbBlockEnd
  0
BLOCK
  5
106
330
104
100
AcDbEntity
  8
0
100
AcDbBlockBegin
  2
BLOCK_10
 70
     0
 71
     0
 10
0.0
 20
0.0
 30
0.0
  3
BLOCK_10
  1

  0
POLYLINE
  5
108
330
104
100
AcDbEntity
  8
LAYER_1
 62
     1
100
AcDb2dPolyline
 66
     1
 10
0.0
 20
0.0
 30
0.0
  0
VERTEX
  5
109
330
108
100
AcDbEntity
  8
LAYER_1
 62
     1
100
AcDbVertex
100
AcDb2dVertex
 10
275.3998995622264
 20
-160.4318955762115
 30
0.0
  0
VERTEX
  5
10A
330
108
100
AcDbEntity
  8
LAYER_1
 62
     1
100
AcDbVertex
100
AcDb2dVertex
 10
259.4735676434649
 20
-160.4318955762115
 30
0.0
  0
VERTEX
  5
10B
330
108
100
AcDbEntity
  8
LAYER_1
 62
     1
100
AcDbVertex
100
AcDb2dVertex
 10
259.4735676434649
 20
-163.5159450546071
 30
0.0
  0
VERTEX
  5
10C
330
108
100
AcDbEntity
  8
LAYER_1
 62
     1
100
AcDbVertex
100
AcDb2dVertex
 10
275.400244071775
 20
-163.5159450546071
 30
0.0
  0
VERTEX
  5
10D
330
108
100
AcDbEntity
  8
LAYER_1
 62
     1
100
AcDbVertex
100
AcDb2dVertex
 10
275.3998995622264
 20
-160.4318955762115
 30
0.0
  0
SEQEND
  5
10E
330
108
100
AcDbEntity
  8
LAYER_1
  0
POLYLINE
  5
10F
330
104
100
AcDbEntity
  8
LAYER_1
 62
     1
100
AcDb2dPolyline
 66
     1
 10
0.0
 20
0.0
 30
0.0
  0
VERTEX
  5
110
330
10F
100
AcDbEntity
  8
LAYER_1
 62
     1
100
AcDbVertex
100
AcDb2dVertex
 10
275.400244071775
 20
-136.4827975461745
 30
0.0
  0
VERTEX
  5
111
330
10F
100
AcDbEntity
  8
LAYER_1
 62
     1
100
AcDbVertex
100
AcDb2dVertex
 10
259.4732231339164
 20
-136.4827975461745
 30
0.0
  0
VERTEX
  5
112
330
10F
100
AcDbEntity
  8
LAYER_1
 62
     1
100
AcDbVertex
100
AcDb2dVertex
 10
259.4735676434649
 20
-139.5671915341186
 30
0.0
  0
VERTEX
  5
113
330
10F
100
AcDbEntity
  8
LAYER_1
 62
     1
100
AcDbVertex
100
AcDb2dVertex
 10
275.400244071775
 20
-139.5671915341186
 30
0.0
  0
VERTEX
  5
114
330
10F
100
AcDbEntity
  8
LAYER_1
 62
     1
100
AcDbVertex
100
AcDb2dVertex
 10
275.400244071775
 20
-136.4827975461745
 30
0.0
  0
SEQEND
  5
115
330
10F
100
AcDbEntity
  8
LAYER_1
  0
ENDBLK
  5
107
330
104
100
AcDbEntity
  8
0
100
AcDbBlockEnd
  0
BLOCK
  5
118
330
116
100
AcDbEntity
  8
0
100
AcDbBlockBegin
  2
BLOCK_11
 70
     0
 71
     0
 10
0.0
 20
0.0
 30
0.0
  3
BLOCK_11
  1

  0
POLYLINE
  5
11A
330
116
100
AcDbEntity
  8
LAYER_1
 62
     1
100
AcDb2dPolyline
 66
     1
 10
0.0
 20
0.0
 30
0.0
  0
VERTEX
  5
11B
330
11A
100
AcDbEntity
  8
LAYER_1
 62
     1
100
AcDbVertex
100
AcDb2dVertex
 10
240.4717989850209
 20
-145.4080064198112
 30
0.0
  0
VERTEX
  5
11C
330
11A
100
AcDbEntity
  8
LAYER_1
 62
     1
100
AcDbVertex
100
AcDb2dVertex
 10
214.590174642533
 20
-145.4080064198112
 30
0.0
  0
VERTEX
  5
11D
330
11A
100
AcDbEntity
  8
LAYER_1
 62
     1
100
AcDbVertex
100
AcDb2dVertex
 10
214.5908636616301
 20
-150.4197590769784
 30
0.0
  0
VERTEX
  5
11E
330
11A
100
AcDbEntity
  8
LAYER_1
 62
     1
100
AcDbVertex
100
AcDb2dVertex
 10
240.4717989850209
 20
-150.4197590769784
 30
0.0
  0
VERTEX
  5
11F
330
11A
100
AcDbEntity
  8
LAYER_1
 62
     1
100
AcDbVertex
100
AcDb2dVertex
 10
240.4717989850209
 20
-145.4080064198112
 30
0.0
  0
SEQEND
  5
120
330
11A
100
AcDbEntity
  8
LAYER_1
  0
ENDBLK
  5
119
330
116
100
AcDbEntity
  8
0
100
AcDbBlockEnd
  0
BLOCK
  5
123
330
121
100
AcDbEntity
  8
0
100
AcDbBlockBegin
  2
BLOCK_12
 70
     0
 71
     0
 10
0.0
 20
0.0
 30
0.0
  3
BLOCK_12
  1

  0
POLYLINE
  5
125
330
121
100
AcDbEntity
  8
LAYER_1
 62
     1
100
AcDb2dPolyline
 66
     1
 10
0.0
 20
0.0
 30
0.0
  0
VERTEX
  5
126
330
125
100
AcDbEntity
  8
LAYER_1
 62
     1
100
AcDbVertex
100
AcDb2dVertex
 10
81.30787080215568
 20
-146.3025254625563
 30
0.0
  0
VERTEX
  5
127
330
125
100
AcDbEntity
  8
LAYER_1
 62
     1
100
AcDbVertex
100
AcDb2dVertex
 10
55.42624645966774
 20
-146.3025254625563
 30
0.0
  0
VERTEX
  5
128
330
125
100
AcDbEntity
  8
LAYER_1
 62
     1
100
AcDbVertex
100
AcDb2dVertex
 10
55.4269354787648
 20
-151.3141058649493
 30
0.0
  0
VERTEX
  5
129
330
125
100
AcDbEntity
  8
LAYER_1
 62
     1
100
AcDbVertex
100
AcDb2dVertex
 10
81.30787080215568
 20
-151.3141058649493
 30
0.0
  0
VERTEX
  5
12A
330
125
100
AcDbEntity
  8
LAYER_1
 62
     1
100
AcDbVertex
100
AcDb2dVertex
 10
81.30787080215568
 20
-146.3025254625563
 30
0.0
  0
SEQEND
  5
12B
330
125
100
AcDbEntity
  8
LAYER_1
  0
ENDBLK
  5
124
330
121
100
AcDbEntity
  8
0
100
AcDbBlockEnd
  0
BLOCK
  5
12E
330
12C
100
AcDbEntity
  8
0
100
AcDbBlockBegin
  2
BLOCK_13
 70
     0
 71
     0
 10
0.0
 20
0.0
 30
0.0
  3
BLOCK_13
  1

  0
POLYLINE
  5
130
330
12C
100
AcDbEntity
  8
LAYER_1
 62
     1
100
AcDb2dPolyline
 66
     1
 10
0.0
 20
0.0
 30
0.0
  0
VERTEX
  5
131
330
130
100
AcDbEntity
  8
LAYER_1
 62
     1
100
AcDbVertex
100
AcDb2dVertex
 10
146.9538207640428
 20
-60.22578123494355
 30
0.0
  0
VERTEX
  5
132
330
130
100
AcDbEntity
  8
LAYER_1
 62
     1
100
AcDbVertex
100
AcDb2dVertex
 10
146.9538207640428
 20
-86.10740557743149
 30
0.0
  0
VERTEX
  5
133
330
130
100
AcDbEntity
  8
LAYER_1
 62
     1
100
AcDbVertex
100
AcDb2dVertex
 10
151.96557342121
 20
-86.10671655833444
 30
0.0
  0
VERTEX
  5
134
330
130
100
AcDbEntity
  8
LAYER_1
 62
     1
100
AcDbVertex
100
AcDb2dVertex
 10
151.96557342121
 20
-60.22578123494355
 30
0.0
  0
VERTEX
  5
135
330
130
100
AcDbEntity
  8
LAYER_1
 62
     1
100
AcDbVertex
100
AcDb2dVertex
 10
146.9538207640428
 20
-60.22578123494355
 30
0.0
  0
SEQEND
  5
136
330
130
100
AcDbEntity
  8
LAYER_1
  0
ENDBLK
  5
12F
330
12C
100
AcDbEntity
  8
0
100
AcDbBlockEnd
  0
BLOCK
  5
139
330
137
100
AcDbEntity
  8
0
100
AcDbBlockBegin
  2
BLOCK_14
 70
     0
 71
     0
 10
0.0
 20
0.0
 30
0.0
  3
BLOCK_14
  1

  0
POLYLINE
  5
13B
330
137
100
AcDbEntity
  8
LAYER_1
 62
     1
100
AcDb2dPolyline
 66
     1
 10
0.0
 20
0.0
 30
0.0
  0
VERTEX
  5
13C
330
13B
100
AcDbEntity
  8
LAYER_1
 62
     1
100
AcDbVertex
100
AcDb2dVertex
 10
147.8483398067879
 20
-219.3898816725831
 30
0.0
  0
VERTEX
  5
13D
330
13B
100
AcDbEntity
  8
LAYER_1
 62
     1
100
AcDbVertex
100
AcDb2dVertex
 10
147.8483398067879
 20
-245.271506015071
 30
0.0
  0
VERTEX
  5
13E
330
13B
100
AcDbEntity
  8
LAYER_1
 62
     1
100
AcDbVertex
100
AcDb2dVertex
 10
152.8599202091809
 20
-245.270816995974
 30
0.0
  0
VERTEX
  5
13F
330
13B
100
AcDbEntity
  8
LAYER_1
 62
     1
100
AcDbVertex
100
AcDb2dVertex
 10
152.8599202091809
 20
-219.3898816725831
 30
0.0
  0
VERTEX
  5
140
330
13B
100
AcDbEntity
  8
LAYER_1
 62
     1
100
AcDbVertex
100
AcDb2dVertex
 10
147.8483398067879
 20
-219.3898816725831
 30
0.0
  0
SEQEND
  5
141
330
13B
100
AcDbEntity
  8
LAYER_1
  0
ENDBLK
  5
13A
330
137
100
AcDbEntity
  8
0
100
AcDbBlockEnd
  0
ENDSEC
  0
SECTION
  2
ENTITIES
  0
INSERT
  5
3D
330
1F
100
AcDbEntity
  8
LAYER_1
100
AcDbBlockReference
  2
BLOCK_2
 10
0.0
 20
0.0
 30
0.0
  0
INSERT
  5
5D
330
1F
100
AcDbEntity
  8
LAYER_1
100
AcDbBlockReference
  2
BLOCK_3
 10
0.0
 20
0.0
 30
0.0
  0
INSERT
  5
7D
330
1F
100
AcDbEntity
  8
LAYER_1
100
AcDbBlockReference
  2
BLOCK_4
 10
0.0
 20
0.0
 30
0.0
  0
INSERT
  5
9D
330
1F
100
AcDbEntity
  8
LAYER_1
100
AcDbBlockReference
  2
BLOCK_5
 10
0.0
 20
0.0
 30
0.0
  0
INSERT
  5
A2
330
1F
100
AcDbEntity
  8
LAYER_1
100
AcDbBlockReference
  2
BLOCK_6
 10
0.0
 20
0.0
 30
0.0
  0
SPLINE
  5
C1
330
1F
100
AcDbEntity
  8
LAYER_1
 62
   163
100
AcDbSpline
210
0.0
220
0.0
230
1.0
 70
    11
 71
     3
 72
    17
 73
    13
 74
     0
 42
0.0000000001
 43
0.0000000001
 40
0.0
 40
0.0
 40
0.0
 40
0.0
 40
1.0
 40
1.0
 40
1.0
 40
2.0
 40
2.0
 40
2.0
 40
3.0
 40
3.0
 40
3.0
 40
4.0
 40
4.0
 40
4.0
 40
4.0
 10
152.8564751136956
 20
-152.0258625922019
 30
0.0
 10
152.8564751136956
 20
-153.7790716846455
 30
0.0
 10
151.4350287164815
 20
-155.2008625914081
 30
0.0
 10
149.6814751144894
 20
-155.2008625914081
 30
0.0
 10
147.9279215124972
 20
-155.2008625914081
 30
0.0
 10
146.5064751152831
 20
-153.7790716846455
 30
0.0
 10
146.5064751152831
 20
-152.0258625922019
 30
0.0
 10
146.5064751152831
 20
-150.2723089902097
 30
0.0
 10
147.9279215124972
 20
-148.8506903382214
 30
0.0
 10
149.6814751144894
 20
-148.8506903382214
 30
0.0
 10
151.4350287164815
 20
-148.8506903382214
 30
0.0
 10
152.8564751136956
 20
-150.2723089902097
 30
0.0
 10
152.8564751136956
 20
-152.0258625922019
 30
0.0
  0
INSERT
  5
C3
330
1F
100
AcDbEntity
  8
LAYER_1
100
AcDbBlockReference
  2
BLOCK_7
 10
0.0
 20
0.0
 30
0.0
  0
POLYLINE
  5
D4
330
1F
100
AcDbEntity
  8
LAYER_1
 62
     1
100
AcDb2dPolyline
 66
     1
 10
0.0
 20
0.0
 30
0.0
  0
VERTEX
  5
D5
330
D4
100
AcDbEntity
  8
LAYER_1
 62
     1
100
AcDbVertex
100
AcDb2dVertex
 10
137.2288329735053
 20
-0.9117445201713694
 30
0.0
  0
VERTEX
  5
D6
330
D4
100
AcDbEntity
  8
LAYER_1
 62
     1
100
AcDbVertex
100
AcDb2dVertex
 10
147.22891163854
 20
-0.9117445201713694
 30
0.0
  0
SEQEND
  5
D7
330
D4
100
AcDbEntity
  8
LAYER_1
  0
INSERT
  5
D9
330
1F
100
AcDbEntity
  8
LAYER_1
100
AcDbBlockReference
  2
BLOCK_8
 10
0.0
 20
0.0
 30
0.0
  0
POLYLINE
  5
EA
330
1F
100
AcDbEntity
  8
LAYER_1
 62
     1
100
AcDb2dPolyline
 66
     1
 10
0.0
 20
0.0
 30
0.0
  0
VERTEX
  5
EB
330
EA
100
AcDbEntity
  8
LAYER_1
 62
     1
100
AcDbVertex
100
AcDb2dVertex
 10
162.2164550375709
 20
-299.3481363183922
 30
0.0
  0
VERTEX
  5
EC
330
EA
100
AcDbEntity
  8
LAYER_1
 62
     1
100
AcDbVertex
100
AcDb2dVertex
 10
152.2163763725362
 20
-299.3481363183922
 30
0.0
  0
SEQEND
  5
ED
330
EA
100
AcDbEntity
  8
LAYER_1
  0
INSERT
  5
EF
330
1F
100
AcDbEntity
  8
LAYER_1
100
AcDbBlockReference
  2
BLOCK_9
 10
0.0
 20
0.0
 30
0.0
  0
POLYLINE
  5
100
330
1F
100
AcDbEntity
  8
LAYER_1
 62
     1
100
AcDb2dPolyline
 66
     1
 10
0.0
 20
0.0
 30
0.0
  0
VERTEX
  5
101
330
100
100
AcDbEntity
  8
LAYER_1
 62
     1
100
AcDbVertex
100
AcDb2dVertex
 10
-2.1166666661375
 20
-162.5340928413109
 30
0.0
  0
VERTEX
  5
102
330
100
100
AcDbEntity
  8
LAYER_1
 62
     1
100
AcDbVertex
100
AcDb2dVertex
 10
-2.1166666661375
 20
-152.5340141762762
 30
0.0
  0
SEQEND
  5
103
330
100
100
AcDbEntity
  8
LAYER_1
  0
INSERT
  5
105
330
1F
100
AcDbEntity
  8
LAYER_1
100
AcDbBlockReference
  2
BLOCK_10
 10
0.0
 20
0.0
 30
0.0
  0
INSERT
  5
117
330
1F
100
AcDbEntity
  8
LAYER_1
100
AcDbBlockReference
  2
BLOCK_11
 10
0.0
 20
0.0
 30
0.0
  0
INSERT
  5
122
330
1F
100
AcDbEntity
  8
LAYER_1
100
AcDbBlockReference
  2
BLOCK_12
 10
0.0
 20
0.0
 30
0.0
  0
INSERT
  5
12D
330
1F
100
AcDbEntity
  8
LAYER_1
100
AcDbBlockReference
  2
BLOCK_13
 10
0.0
 20
0.0
 30
0.0
  0
INSERT
  5
138
330
1F
100
AcDbEntity
  8
LAYER_1
100
AcDbBlockReference
  2
BLOCK_14
 10
0.0
 20
0.0
 30
0.0
  0
POLYLINE
  5
142
330
1F
100
AcDbEntity
  8
LAYER_1
 62
     1
100
AcDb2dPolyline
 66
     1
 10
0.0
 20
0.0
 30
0.0
  0
VERTEX
  5
143
330
142
100
AcDbEntity
  8
LAYER_1
 62
     1
100
AcDbVertex
100
AcDb2dVertex
 10
299.2871581283032
 20
-137.4646497594707
 30
0.0
  0
VERTEX
  5
144
330
142
100
AcDbEntity
  8
LAYER_1
 62
     1
100
AcDbVertex
100
AcDb2dVertex
 10
299.2871581283032
 20
-147.4647284245054
 30
0.0
  0
SEQEND
  5
145
330
142
100
AcDbEntity
  8
LAYER_1
  0
ENDSEC
  0
SECTION
  2
OBJECTS
  0
DICTIONARY
  5
C
330
0
100
AcDbDictionary
  3
ACAD_GROUP
350
D
  3
ACAD_LAYOUT
350
1A
  3
ACAD_MLINESTYLE
350
17
  3
ACAD_PLOTSETTINGS
350
19
  3
ACAD_TABLESTYLE
350
166
  3
ACAD_VISUALSTYLE
350
2A
  3
ACDBHEADERROUNDTRIPXREC
350
146
  0
DICTIONARY
  5
D
102
{ACAD_REACTORS
330
C
102
}
330
C
100
AcDbDictionary
  0
DICTIONARY
  5
1A
102
{ACAD_REACTORS
330
C
102
}
330
C
100
AcDbDictionary
  0
DICTIONARY
  5
17
102
{ACAD_REACTORS
330
C
102
}
330
C
100
AcDbDictionary
  3
STANDARD
350
18
  0
DICTIONARY
  5
19
102
{ACAD_REACTORS
330
C
102
}
330
C
100
AcDbDictionary
  0
DICTIONARY
  5
166
102
{ACAD_REACTORS
330
C
102
}
330
C
100
AcDbDictionary
  0
DICTIONARY
  5
2A
102
{ACAD_REACTORS
330
C
102
}
330
C
100
AcDbDictionary
  3
2DWIREFRAME
350
2F
  3
3DWIREFRAME
350
30
  3
3D_HIDDEN
350
31
  3
BASIC
350
32
  3
BRIGHTEN
350
36
  3
COLORCHANGE
350
3A
  3
CONCEPTUAL
350
34
  3
DIM
350
35
  3
FACEPATTERN
350
39
  3
FLAT
350
2B
  3
FLATWITHEDGES
350
2C
  3
GOURAUD
350
2D
  3
GOURAUDWITHEDGES
350
2E
  3
LINEPATTERN
350
38
  3
REALISTIC
350
33
  3
THICKEN
350
37
  0
DICTIONARY
  5
146
102
{ACAD_REACTORS
330
C
102
}
330
C
100
AcDbDictionary
  3
CEPSNTYPE
350
14F
  3
DIMSTYLEDATA
350
165
  3
FINGERPRINTGUID
350
150
  3
HYPERLINKBASE
350
149
  3
INSUNITS
350
14E
  3
LAYOUTDICT
350
14B
  3
LWETCUNION
350
14D
  3
PLOTSETDICT
350
14C
  3
PSVPSCALE
350
152
  3
PUCSBASE
350
155
  3
PUCSORGBACK
350
15B
  3
PUCSORGBOTTOM
350
157
  3
PUCSORGFRONT
350
15A
  3
PUCSORGLEFT
350
158
  3
PUCSORGRIGHT
350
159
  3
PUCSORGTOP
350
156
  3
PUCSORTHOREF
350
153
  3
PUCSORTHOVIEW
350
154
  3
STYLESHEET
350
14A
  3
TSTACKALIGN
350
147
  3
TSTACKSIZE
350
148
  3
UCSBASE
350
15E
  3
UCSORGBACK
350
164
  3
UCSORGBOTTOM
350
160
  3
UCSORGFRONT
350
163
  3
UCSORGLEFT
350
161
  3
UCSORGRIGHT
350
162
  3
UCSORGTOP
350
15F
  3
UCSORTHOREF
350
15C
  3
UCSORTHOVIEW
350
15D
  3
VERSIONGUID
350
151
  0
MLINESTYLE
  5
18
102
{ACAD_REACTORS
330
17
102
}
330
17
100
AcDbMlineStyle
  2
Standard
 70
     0
  3

 62
   256
 51
90.0
 52
90.0
 71
     2
 49
0.5
 62
   256
  6
BYLAYER
 49
-0.5
 62
   256
  6
BYLAYER
  0
VISUALSTYLE
  5
2F
102
{ACAD_REACTORS
330
2A
102
}
330
2A
100
AcDbVisualStyle
  2
2dWireframe
 70
     4
 71
     0
 72
     2
 73
     0
 90
        0
 40
-0.6
 41
-30.0
 62
     5
 63
     7
 74
     1
 91
        4
 64
     7
 65
   257
 75
     1
175
     1
 42
1.0
 92
        0
 66
   257
 43
1.0
 76
     1
 77
     6
 78
     2
 67
     7
 79
     5
170
     0
171
     0
290
     0
174
     0
 93
        1
 44
0.0
173
     0
291
     0
 45
0.0
1001
ACAD
1000
AcDbSavedByObjectVersion
1070
     0
  0
VISUALSTYLE
  5
30
102
{ACAD_REACTORS
330
2A
102
}
330
2A
100
AcDbVisualStyle
  2
3dWireframe
 70
     5
 71
     0
 72
     2
 73
     0
 90
        0
 40
-0.6
 41
-30.0
 62
     5
 63
     7
 74
     1
 91
        4
 64
     7
 65
   257
 75
     1
175
     1
 42
1.0
 92
        0
 66
   257
 43
1.0
 76
     1
 77
     6
 78
     2
 67
     7
 79
     5
170
     0
171
     0
290
     0
174
     0
 93
        1
 44
0.0
173
     0
291
     0
 45
0.0
1001
ACAD
1000
AcDbSavedByObjectVersion
1070
     0
  0
VISUALSTYLE
  5
31
102
{ACAD_REACTORS
330
2A
102
}
330
2A
100
AcDbVisualStyle
  2
3D Hidden
 70
     6
 71
     1
 72
     2
 73
     2
 90
        0
 40
-0.6
 41
-30.0
 62
     5
 63
     7
 74
     2
 91
        2
 64
     7
 65
   257
 75
     2
175
     1
 42
40.0
 92
        0
 66
   257
 43
1.0
 76
     1
 77
     6
 78
     2
 67
     7
 79
     3
170
     0
171
     0
290
     0
174
     0
 93
        1
 44
0.0
173
     0
291
     0
 45
0.0
1001
ACAD
1000
AcDbSavedByObjectVersion
1070
     0
  0
VISUALSTYLE
  5
32
102
{ACAD_REACTORS
330
2A
102
}
330
2A
100
AcDbVisualStyle
  2
Basic
 70
     7
 71
     1
 72
     0
 73
     1
 90
        0
 40
-0.6
 41
-30.0
 62
     5
 63
     7
 74
     0
 91
        4
 64
     7
 65
   257
 75
     1
175
     1
 42
1.0
 92
        8
 66
     7
 43
1.0
 76
     1
 77
     6
 78
     2
 67
     7
 79
     5
170
     0
171
     0
290
     0
174
     0
 93
        1
 44
0.0
173
     0
291
     1
 45
0.0
1001
ACAD
1000
AcDbSavedByObjectVersion
1070
     0
  0
VISUALSTYLE
  5
36
102
{ACAD_REACTORS
330
2A
102
}
330
2A
100
AcDbVisualStyle
  2
Brighten
 70
    12
 71
     2
 72
     2
 73
     0
 90
        0
 40
-0.6
 41
-30.0
 62
     5
 63
     7
 74
     1
 91
        4
 64
     7
 65
   257
 75
     1
175
     1
 42
1.0
 92
        8
 66
     7
 43
1.0
 76
     1
 77
     6
 78
     2
 67
     7
 79
     5
170
     0
171
     0
290
     0
174
     0
 93
        1
 44
50.0
173
     0
291
     1
 45
0.0
1001
ACAD
1000
AcDbSavedByObjectVersion
1070
     0
  0
VISUALSTYLE
  5
3A
102
{ACAD_REACTORS
330
2A
102
}
330
2A
100
AcDbVisualStyle
  2
ColorChange
 70
    16
 71
     2
 72
     2
 73
     3
 90
        0
 40
-0.6
 41
-30.0
 62
     5
 63
     8
 74
     1
 91
        4
 64
     7
 65
   257
 75
     1
175
     1
 42
1.0
 92
        8
 66
     8
 43
1.0
 76
     1
 77
     6
 78
     2
 67
     7
 79
     5
170
     0
171
     0
290
     0
174
     0
 93
        1
 44
0.0
173
     0
291
     1
 45
0.0
1001
ACAD
1000
AcDbSavedByObjectVersion
1070
     0
  0
VISUALSTYLE
  5
34
102
{ACAD_REACTORS
330
2A
102
}
330
2A
100
AcDbVisualStyle
  2
Conceptual
 70
     9
 71
     3
 72
     2
 73
     0
 90
        0
 40
-0.6
 41
-30.0
 62
     5
 63
     7
 74
     2
 91
        2
 64
     7
 65
   257
 75
     1
175
     1
 42
40.0
 92
        8
 66
     7
 43
1.0
 76
     1
 77
     6
 78
     2
 67
     7
 79
     3
170
     0
171
     0
290
     0
174
     0
 93
        1
 44
0.0
173
     0
291
     0
 45
0.0
1001
ACAD
1000
AcDbSavedByObjectVersion
1070
     0
  0
VISUALSTYLE
  5
35
102
{ACAD_REACTORS
330
2A
102
}
330
2A
100
AcDbVisualStyle
  2
Dim
 70
    11
 71
     2
 72
     2
 73
     0
 90
        0
 40
-0.6
 41
-30.0
 62
     5
 63
     7
 74
     1
 91
        4
 64
     7
 65
   257
 75
     1
175
     1
 42
1.0
 92
        8
 66
     7
 43
1.0
 76
     1
 77
     6
 78
     2
 67
     7
 79
     5
170
     0
171
     0
290
     0
174
     0
 93
        1
 44
-50.0
173
     0
291
     1
 45
0.0
1001
ACAD
1000
AcDbSavedByObjectVersion
1070
     0
  0
VISUALSTYLE
  5
39
102
{ACAD_REACTORS
330
2A
102
}
330
2A
100
AcDbVisualStyle
  2
Facepattern
 70
    15
 71
     2
 72
     2
 73
     0
 90
        0
 40
-0.6
 41
-30.0
 62
     5
 63
     7
 74
     1
 91
        4
 64
     7
 65
   257
 75
     1
175
     1
 42
1.0
 92
        8
 66
     7
 43
1.0
 76
     1
 77
     6
 78
     2
 67
     7
 79
     5
170
     0
171
     0
290
     0
174
     0
 93
        1
 44
0.0
173
     0
291
     1
 45
0.0
1001
ACAD
1000
AcDbSavedByObjectVersion
1070
     0
  0
VISUALSTYLE
  5
2B
102
{ACAD_REACTORS
330
2A
102
}
330
2A
100
AcDbVisualStyle
  2
Flat
 70
     0
 71
     2
 72
     1
 73
     1
 90
        2
 40
-0.6
 41
30.0
 62
     5
 63
     7
 74
     0
 91
        4
 64
     7
 65
   257
 75
     1
175
     1
 42
1.0
 92
        8
 66
     7
 43
1.0
 76
     1
 77
     6
 78
     2
 67
     7
 79
     5
170
     0
171
     0
290
     0
174
     0
 93
       13
 44
0.0
173
     0
291
     1
 45
0.0
1001
ACAD
1000
AcDbSavedByObjectVersion
1070
     0
  0
VISUALSTYLE
  5
2C
102
{ACAD_REACTORS
330
2A
102
}
330
2A
100
AcDbVisualStyle
  2
FlatWithEdges
 70
     1
 71
     2
 72
     1
 73
     1
 90
        2
 40
-0.6
 41
30.0
 62
     5
 63
     7
 74
     1
 91
        4
 64
     7
 65
   257
 75
     1
175
     1
 42
1.0
 92
        0
 66
   257
 43
1.0
 76
     1
 77
     6
 78
     2
 67
     7
 79
     5
170
     0
171
     0
290
     0
174
     0
 93
       13
 44
0.0
173
     0
291
     1
 45
0.0
1001
ACAD
1000
AcDbSavedByObjectVersion
1070
     0
  0
VISUALSTYLE
  5
2D
102
{ACAD_REACTORS
330
2A
102
}
330
2A
100
AcDbVisualStyle
  2
Gouraud
 70
     2
 71
     2
 72
     2
 73
     1
 90
        2
 40
-0.6
 41
30.0
 62
     5
 63
     7
 74
     0
 91
        4
 64
     7
 65
   257
 75
     1
175
     1
 42
1.0
 92
        0
 66
     7
 43
1.0
 76
     1
 77
     6
 78
     2
 67
     7
 79
     5
170
     0
171
     0
290
     0
174
     0
 93
       13
 44
0.0
173
     0
291
     1
 45
0.0
1001
ACAD
1000
AcDbSavedByObjectVersion
1070
     0
  0
VISUALSTYLE
  5
2E
102
{ACAD_REACTORS
330
2A
102
}
330
2A
100
AcDbVisualStyle
  2
GouraudWithEdges
 70
     3
 71
     2
 72
     2
 73
     1
 90
        2
 40
-0.6
 41
30.0
 62
     5
 63
     7
 74
     1
 91
        4
 64
     7
 65
   257
 75
     1
175
     1
 42
1.0
 92
        0
 66
   257
 43
1.0
 76
     1
 77
     6
 78
     2
 67
     7
 79
     5
170
     0
171
     0
290
     0
174
     0
 93
       13
 44
0.0
173
     0
291
     1
 45
0.0
1001
ACAD
1000
AcDbSavedByObjectVersion
1070
     0
  0
VISUALSTYLE
  5
38
102
{ACAD_REACTORS
330
2A
102
}
330
2A
100
AcDbVisualStyle
  2
Linepattern
 70
    14
 71
     2
 72
     2
 73
     0
 90
        0
 40
-0.6
 41
-30.0
 62
     5
 63
     7
 74
     1
 91
        4
 64
     7
 65
   257
 75
     7
175
     7
 42
1.0
 92
        8
 66
     7
 43
1.0
 76
     1
 77
     6
 78
     2
 67
     7
 79
     5
170
     0
171
     0
290
     0
174
     0
 93
        1
 44
0.0
173
     0
291
     1
 45
0.0
1001
ACAD
1000
AcDbSavedByObjectVersion
1070
     0
  0
VISUALSTYLE
  5
33
102
{ACAD_REACTORS
330
2A
102
}
330
2A
100
AcDbVisualStyle
  2
Realistic
 70
     8
 71
     2
 72
     2
 73
     0
 90
        0
 40
-0.6
 41
-30.0
 62
     5
 63
     7
 74
     1
 91
        0
 64
     7
 65
   257
 75
     1
175
     1
 42
1.0
 92
        8
 66
     8
 43
1.0
 76
     1
 77
     6
 78
     2
 67
     7
 79
     5
170
     0
171
     0
290
     0
174
     0
 93
       13
 44
0.0
173
     0
291
     0
 45
0.0
1001
ACAD
1000
AcDbSavedByObjectVersion
1070
     0
  0
VISUALSTYLE
  5
37
102
{ACAD_REACTORS
330
2A
102
}
330
2A
100
AcDbVisualStyle
  2
Thicken
 70
    13
 71
     2
 72
     2
 73
     0
 90
        0
 40
-0.6
 41
-30.0
 62
     5
 63
     7
 74
     1
 91
        4
 64
     7
 65
   257
 75
     1
175
     1
 42
1.0
 92
       12
 66
     7
 43
1.0
 76
     1
 77
     6
 78
     2
 67
     7
 79
     5
170
     0
171
     0
290
     0
174
     0
 93
        1
 44
0.0
173
     0
291
     1
 45
0.0
1001
ACAD
1000
AcDbSavedByObjectVersion
1070
     0
  0
XRECORD
  5
14F
102
{ACAD_REACTORS
330
146
102
}
330
146
100
AcDbXrecord
 90
        0
  0
XRECORD
  5
165
102
{ACAD_REACTORS
330
146
102
}
330
146
100
AcDbXrecord
1000
DSTYLE
1002
{
1070
   340
340
11
1002
}
  0
XRECORD
  5
150
102
{ACAD_REACTORS
330
146
102
}
330
146
100
AcDbXrecord
  1
{9CDE488E-EB87-D724-3741-BC47834A09E4}
  0
XRECORD
  5
149
102
{ACAD_REACTORS
330
146
102
}
330
146
100
AcDbXrecord
  1

  0
XRECORD
  5
14E
102
{ACAD_REACTORS
330
146
102
}
330
146
100
AcDbXrecord
 90
        1
  0
XRECORD
  5
14B
102
{ACAD_REACTORS
330
146
102
}
330
146
100
AcDbXrecord
340
1A
  0
XRECORD
  5
14D
102
{ACAD_REACTORS
330
146
102
}
330
146
100
AcDbXrecord
 90
    10269
  0
XRECORD
  5
14C
102
{ACAD_REACTORS
330
146
102
}
330
146
100
AcDbXrecord
340
19
  0
XRECORD
  5
152
102
{ACAD_REACTORS
330
146
102
}
330
146
100
AcDbXrecord
 40
0.0
  0
XRECORD
  5
155
102
{ACAD_REACTORS
330
146
102
}
330
146
100
AcDbXrecord
340
0
  0
XRECORD
  5
15B
102
{ACAD_REACTORS
330
146
102
}
330
146
100
AcDbXrecord
 10
0.0
 20
0.0
 30
0.0
  0
XRECORD
  5
157
102
{ACAD_REACTORS
330
146
102
}
330
146
100
AcDbXrecord
 10
0.0
 20
0.0
 30
0.0
  0
XRECORD
  5
15A
102
{ACAD_REACTORS
330
146
102
}
330
146
100
AcDbXrecord
 10
0.0
 20
0.0
 30
0.0
  0
XRECORD
  5
158
102
{ACAD_REACTORS
330
146
102
}
330
146
100
AcDbXrecord
 10
0.0
 20
0.0
 30
0.0
  0
XRECORD
  5
159
102
{ACAD_REACTORS
330
146
102
}
330
146
100
AcDbXrecord
 10
0.0
 20
0.0
 30
0.0
  0
XRECORD
  5
156
102
{ACAD_REACTORS
330
146
102
}
330
146
100
AcDbXrecord
 10
0.0
 20
0.0
 30
0.0
  0
XRECORD
  5
153
102
{ACAD_REACTORS
330
146
102
}
330
146
100
AcDbXrecord
340
0
  0
XRECORD
  5
154
102
{ACAD_REACTORS
330
146
102
}
330
146
100
AcDbXrecord
 70
     0
  0
XRECORD
  5
14A
102
{ACAD_REACTORS
330
146
102
}
330
146
100
AcDbXrecord
  1

  0
XRECORD
  5
147
102
{ACAD_REACTORS
330
146
102
}
330
146
100
AcDbXrecord
 90
        1
  0
XRECORD
  5
148
102
{ACAD_REACTORS
330
146
102
}
330
146
100
AcDbXrecord
 90
       70
  0
XRECORD
  5
15E
102
{ACAD_REACTORS
330
146
102
}
330
146
100
AcDbXrecord
340
0
  0
XRECORD
  5
164
102
{ACAD_REACTORS
330
146
102
}
330
146
100
AcDbXrecord
 10
0.0
 20
0.0
 30
0.0
  0
XRECORD
  5
160
102
{ACAD_REACTORS
330
146
102
}
330
146
100
AcDbXrecord
 10
0.0
 20
0.0
 30
0.0
  0
XRECORD
  5
163
102
{ACAD_REACTORS
330
146
102
}
330
146
100
AcDbXrecord
 10
0.0
 20
0.0
 30
0.0
  0
XRECORD
  5
161
102
{ACAD_REACTORS
330
146
102
}
330
146
100
AcDbXrecord
 10
0.0
 20
0.0
 30
0.0
  0
XRECORD
  5
162
102
{ACAD_REACTORS
330
146
102
}
330
146
100
AcDbXrecord
 10
0.0
 20
0.0
 30
0.0
  0
XRECORD
  5
15F
102
{ACAD_REACTORS
330
146
102
}
330
146
100
AcDbXrecord
 10
0.0
 20
0.0
 30
0.0
  0
XRECORD
  5
15C
102
{ACAD_REACTORS
330
146
102
}
330
146
100
AcDbXrecord
340
0
  0
XRECORD
  5
15D
102
{ACAD_REACTORS
330
146
102
}
330
146
100
AcDbXrecord
 70
     0
  0
XRECORD
  5
151
102
{ACAD_REACTORS
330
146
102
}
330
146
100
AcDbXrecord
  1
{FAEB1C32-E019-11D5-929B-00C0DF256EC4}
  0
ENDSEC
  0
EOF
