<?xml version="1.0" encoding="utf-8"?>
<!-- Generator: Adobe Illustrator 16.0.0, SVG Export Plug-In . SVG Version: 6.00 Build 0)  -->
<!DOCTYPE svg PUBLIC "-//W3C//DTD SVG 1.1//EN" "http://www.w3.org/Graphics/SVG/1.1/DTD/svg11.dtd">
<svg version="1.1" id="Layer_1" xmlns="http://www.w3.org/2000/svg" xmlns:xlink="http://www.w3.org/1999/xlink" x="0px" y="0px"
	 width="850.39px" height="850.39px" viewBox="0 0 850.39 850.39" enable-background="new 0 0 850.39 850.39" xml:space="preserve">
<g>
	<rect x="17.373" y="445.283" fill="none" stroke="#69BD45" stroke-width="0.25" width="17.711" height="8.822"/>
	<rect x="69.208" y="445.283" fill="none" stroke="#69BD45" stroke-width="0.25" width="17.711" height="8.822"/>
	<rect x="17.372" y="395.428" fill="none" stroke="#69BD45" stroke-width="0.25" width="17.711" height="8.824"/>
	<rect x="69.207" y="395.428" fill="none" stroke="#69BD45" stroke-width="0.25" width="17.711" height="8.824"/>
</g>
<g>
	<rect x="768.41" y="445.282" fill="none" stroke="#69BD45" stroke-width="0.25" width="17.711" height="8.823"/>
	<rect x="820.246" y="445.282" fill="none" stroke="#69BD45" stroke-width="0.25" width="17.711" height="8.823"/>
	<rect x="768.41" y="395.428" fill="none" stroke="#69BD45" stroke-width="0.25" width="17.711" height="8.824"/>
	<rect x="820.244" y="395.428" fill="none" stroke="#69BD45" stroke-width="0.25" width="17.711" height="8.824"/>
</g>
<g>
	<rect x="394.955" y="8.311" fill="none" stroke="#69BD45" stroke-width="0.25" width="8.824" height="17.711"/>
	<rect x="394.955" y="60.146" fill="none" stroke="#69BD45" stroke-width="0.25" width="8.824" height="17.711"/>
	<rect x="444.809" y="8.31" fill="none" stroke="#69BD45" stroke-width="0.25" width="8.824" height="17.711"/>
	<rect x="444.809" y="60.145" fill="none" stroke="#69BD45" stroke-width="0.25" width="8.824" height="17.711"/>
</g>
<g>
	<path fill="none" stroke="#ED1F24" stroke-width="0.25" stroke-miterlimit="10" d="M848.074,424.77
		c0,234.03-189.737,423.776-423.778,423.776C190.25,848.546,0.514,658.8,0.514,424.77C0.514,190.717,190.25,0.987,424.296,0.987
		C658.337,0.987,848.074,190.717,848.074,424.77z"/>
</g>
<g>
	<rect x="394.955" y="763.055" fill="none" stroke="#69BD45" stroke-width="0.25" width="8.824" height="17.711"/>
	<rect x="394.955" y="814.889" fill="none" stroke="#69BD45" stroke-width="0.25" width="8.824" height="17.711"/>
	<rect x="444.809" y="763.053" fill="none" stroke="#69BD45" stroke-width="0.25" width="8.824" height="17.711"/>
	<rect x="444.809" y="814.889" fill="none" stroke="#69BD45" stroke-width="0.25" width="8.824" height="17.711"/>
</g>
<circle fill="none" stroke="#3953A4" stroke-width="0.25" cx="424.294" cy="430.939" r="9"/>
<g>
	<rect x="454.099" y="70.296" fill="none" stroke="#ED2224" stroke-width="0.25" width="8.743" height="45.146"/>
	<rect x="386.212" y="70.294" fill="none" stroke="#ED2224" stroke-width="0.25" width="8.743" height="45.147"/>
</g>
<line fill="none" stroke="#ED2224" stroke-width="0.25" x1="388.995" y1="2.584" x2="417.342" y2="2.584"/>
<g>
	<rect x="385.979" y="735.689" fill="none" stroke="#ED2224" stroke-width="0.25" width="8.743" height="45.145"/>
	<rect x="453.866" y="735.689" fill="none" stroke="#ED2224" stroke-width="0.25" width="8.743" height="45.147"/>
</g>
<line fill="none" stroke="#ED2224" stroke-width="0.25" x1="459.826" y1="848.546" x2="431.479" y2="848.546"/>
<g>
	<rect x="61.711" y="386.88" fill="none" stroke="#ED2224" stroke-width="0.25" width="45.146" height="8.743"/>
	<rect x="61.709" y="454.767" fill="none" stroke="#ED2224" stroke-width="0.25" width="45.147" height="8.743"/>
</g>
<line fill="none" stroke="#ED2224" stroke-width="0.25" x1="-6" y1="460.727" x2="-6" y2="432.38"/>
<g>
	<rect x="735.516" y="454.768" fill="none" stroke="#ED2224" stroke-width="0.25" width="45.146" height="8.742"/>
	<rect x="735.515" y="386.88" fill="none" stroke="#ED2224" stroke-width="0.25" width="45.147" height="8.743"/>
</g>
<g>
	<rect x="608.288" y="412.18" fill="none" stroke="#ED2224" stroke-width="0.25" width="73.365" height="14.207"/>
</g>
<g>
	<rect x="157.115" y="414.716" fill="none" stroke="#ED2224" stroke-width="0.25" width="73.365" height="14.206"/>
</g>
<g>
	<rect x="416.562" y="170.718" fill="none" stroke="#ED2224" stroke-width="0.25" width="14.207" height="73.365"/>
</g>
<g>
	<rect x="419.098" y="621.892" fill="none" stroke="#ED2224" stroke-width="0.25" width="14.206" height="73.365"/>
</g>
<line fill="none" stroke="#ED2224" stroke-width="0.25" x1="848.373" y1="389.664" x2="848.373" y2="418.01"/>
</svg>
