<?xml version="1.0" encoding="utf-8"?>
<!-- Generator: Adobe Illustrator 16.0.0, SVG Export Plug-In . SVG Version: 6.00 Build 0)  -->
<!DOCTYPE svg PUBLIC "-//W3C//DTD SVG 1.1//EN" "http://www.w3.org/Graphics/SVG/1.1/DTD/svg11.dtd">
<svg version="1.1" id="Layer_1" xmlns="http://www.w3.org/2000/svg" xmlns:xlink="http://www.w3.org/1999/xlink" x="0px" y="0px"
	 width="850.39px" height="850.39px" viewBox="0 0 850.39 850.39" enable-background="new 0 0 850.39 850.39" xml:space="preserve">
<line fill="none" stroke="#000000" stroke-width="0.25" stroke-miterlimit="10" x1="74.17" y1="369.276" x2="329.289" y2="369.276"/>
<line fill="none" stroke="#000000" stroke-width="0.25" stroke-miterlimit="10" x1="329.289" y1="426.194" x2="74.17" y2="426.194"/>
<path fill="none" stroke="#000000" stroke-width="0.25" stroke-miterlimit="10" d="M136.002,319.231
	c-14.105,0-25.58-11.566-25.58-25.783c0-11.289,7.234-20.906,17.277-24.39c-10.043-3.483-17.277-13.103-17.277-24.392
	c0-14.217,11.475-25.781,25.58-25.781h136.891c14.104,0,25.581,11.564,25.581,25.781c0,11.289-7.235,20.907-17.279,24.392
	c10.044,3.481,17.279,13.101,17.279,24.39c0,14.217-11.477,25.783-25.582,25.783H136.002z"/>
<g>
	
		<rect x="103.77" y="486.591" fill="none" stroke="#000000" stroke-width="0.25" stroke-miterlimit="10" width="56.947" height="73.814"/>
	
		<rect x="104.053" y="486.874" fill="none" stroke="#000000" stroke-width="0.25" stroke-miterlimit="10" width="56.381" height="73.246"/>
	
		<rect x="175.974" y="486.591" fill="none" stroke="#000000" stroke-width="0.25" stroke-miterlimit="10" width="56.948" height="73.812"/>
	
		<rect x="176.257" y="486.874" fill="none" stroke="#000000" stroke-width="0.25" stroke-miterlimit="10" width="56.381" height="73.246"/>
	
		<rect x="248.179" y="486.591" fill="none" stroke="#000000" stroke-width="0.25" stroke-miterlimit="10" width="56.948" height="73.812"/>
	
		<rect x="248.461" y="486.872" fill="none" stroke="#000000" stroke-width="0.25" stroke-miterlimit="10" width="56.382" height="73.248"/>
</g>
<path fill="none" stroke="#000000" stroke-width="0.25" stroke-miterlimit="10" d="M81.256,735.218
	c-3.914,0-7.087-3.234-7.087-7.227L74.17,43.478c0-3.99,3.172-7.226,7.086-7.226h240.947c3.914,0,7.086,3.235,7.086,7.226v684.513
	c0,3.99-3.174,7.227-7.086,7.227H81.256z"/>
</svg>
